%TF.GenerationSoftware,Altium Limited,Altium Designer,20.2.6 (244)*%
G04 Layer_Physical_Order=2*
G04 Layer_Color=16711680*
%FSLAX26Y26*%
%MOIN*%
%TF.SameCoordinates,5A7C1849-F1A5-4743-A48D-7E663CB7BB3B*%
%TF.FilePolarity,Positive*%
%TF.FileFunction,Copper,L2,Bot,Signal*%
%TF.Part,Single*%
G01*
G75*
%TA.AperFunction,Conductor*%
%ADD22C,0.039370*%
%ADD23C,0.021654*%
%ADD27C,0.019685*%
%TA.AperFunction,ComponentPad*%
%ADD30R,0.078740X0.078740*%
%ADD31C,0.078740*%
%ADD32R,0.078740X0.078740*%
%ADD33O,0.049213X0.041339*%
%ADD34O,0.074803X0.047244*%
%TA.AperFunction,ViaPad*%
%ADD35C,0.031496*%
%ADD36C,0.059055*%
G36*
X1775777Y2058479D02*
X1764834Y2052629D01*
X1755242Y2044758D01*
X1747370Y2035166D01*
X1741521Y2024223D01*
X1737919Y2012349D01*
X1736703Y2000000D01*
X1737919Y1987651D01*
X1741521Y1975777D01*
X1747370Y1964834D01*
X1755242Y1955242D01*
X1764834Y1947371D01*
X1775777Y1941521D01*
X1787651Y1937919D01*
X1800000Y1936703D01*
X1812348Y1937919D01*
X1824223Y1941521D01*
X1835166Y1947371D01*
X1844757Y1955242D01*
X1855242D01*
X1864834Y1947371D01*
X1875777Y1941521D01*
X1887651Y1937919D01*
X1900000Y1936703D01*
X1912348Y1937919D01*
X1924223Y1941521D01*
X1935166Y1947371D01*
X1944757Y1955242D01*
X1955242D01*
X1964834Y1947371D01*
X1975777Y1941521D01*
X1987651Y1937919D01*
X2000000Y1936703D01*
X2012348Y1937919D01*
X2024223Y1941521D01*
X2035166Y1947371D01*
X2044757Y1955242D01*
X2055242D01*
X2064834Y1947371D01*
X2075777Y1941521D01*
X2087651Y1937919D01*
X2100000Y1936703D01*
X2112348Y1937919D01*
X2124222Y1941521D01*
X2135166Y1947371D01*
X2144757Y1955242D01*
X2155242D01*
X2164834Y1947371D01*
X2175777Y1941521D01*
X2187651Y1937919D01*
X2200000Y1936703D01*
X2212348Y1937919D01*
X2224222Y1941521D01*
X2235166Y1947371D01*
X2244757Y1955242D01*
X2255242D01*
X2264834Y1947371D01*
X2275777Y1941521D01*
X2287651Y1937919D01*
X2300000Y1936703D01*
X2312348Y1937919D01*
X2324222Y1941521D01*
X2335166Y1947371D01*
X2344757Y1955242D01*
X2355242D01*
X2364834Y1947371D01*
X2375777Y1941521D01*
X2387651Y1937919D01*
X2400000Y1936703D01*
X2412348Y1937919D01*
X2424222Y1941521D01*
X2435166Y1947371D01*
X2444757Y1955242D01*
X2455242D01*
X2464834Y1947371D01*
X2475777Y1941521D01*
X2487651Y1937919D01*
X2500000Y1936703D01*
X2512348Y1937919D01*
X2524222Y1941521D01*
X2535166Y1947371D01*
X2544758Y1955242D01*
X2552629Y1964834D01*
X2553968Y1967338D01*
X2573653Y1962407D01*
Y1600000D01*
X2573686Y1599746D01*
X2573657Y1599492D01*
X2574135Y1596339D01*
X2574550Y1593181D01*
X2574648Y1592944D01*
X2574687Y1592691D01*
X2575963Y1589770D01*
X2577182Y1586826D01*
X2577338Y1586623D01*
X2577441Y1586388D01*
X2579430Y1583898D01*
X2581370Y1581370D01*
X2581573Y1581214D01*
X2581733Y1581014D01*
X2677590Y1488787D01*
Y211213D01*
X2581733Y118987D01*
X2581573Y118786D01*
X2581370Y118630D01*
X2580916Y118039D01*
X2570914Y117373D01*
X2567455Y117890D01*
X2559346Y121363D01*
X2558479Y124223D01*
X2552629Y135166D01*
X2544758Y144758D01*
X2535166Y152629D01*
X2524222Y158479D01*
X2512348Y162081D01*
X2500000Y163297D01*
X2487651Y162081D01*
X2475777Y158479D01*
X2464834Y152629D01*
X2455242Y144758D01*
X2444757D01*
X2435166Y152629D01*
X2424222Y158479D01*
X2412348Y162081D01*
X2400000Y163297D01*
X2387651Y162081D01*
X2375777Y158479D01*
X2364834Y152629D01*
X2355242Y144758D01*
X2344757D01*
X2335166Y152629D01*
X2324222Y158479D01*
X2312348Y162081D01*
X2300000Y163297D01*
X2287651Y162081D01*
X2275777Y158479D01*
X2264834Y152629D01*
X2255242Y144758D01*
X2244757D01*
X2235166Y152629D01*
X2224222Y158479D01*
X2212348Y162081D01*
X2200000Y163297D01*
X2187651Y162081D01*
X2175777Y158479D01*
X2164834Y152629D01*
X2155242Y144758D01*
X2144757D01*
X2135166Y152629D01*
X2124222Y158479D01*
X2112348Y162081D01*
X2100000Y163297D01*
X2087651Y162081D01*
X2075777Y158479D01*
X2064834Y152629D01*
X2055242Y144758D01*
X2044757D01*
X2035166Y152629D01*
X2024223Y158479D01*
X2012348Y162081D01*
X2000000Y163297D01*
X1987651Y162081D01*
X1975777Y158479D01*
X1964834Y152629D01*
X1955242Y144758D01*
X1947370Y135166D01*
X1941521Y124223D01*
X1937919Y112349D01*
X1936703Y100000D01*
X1937919Y87651D01*
X1941521Y75777D01*
X1947370Y64834D01*
X1955242Y55242D01*
X1964834Y47371D01*
X1967337Y46032D01*
X1962407Y26347D01*
X1837593D01*
X1832662Y46032D01*
X1835166Y47371D01*
X1844757Y55242D01*
X1852629Y64834D01*
X1858478Y75777D01*
X1862081Y87651D01*
X1863297Y100000D01*
X1862081Y112349D01*
X1858478Y124223D01*
X1852629Y135166D01*
X1844757Y144758D01*
X1835166Y152629D01*
X1824223Y158479D01*
X1812348Y162081D01*
X1800000Y163297D01*
X1787651Y162081D01*
X1775777Y158479D01*
X1764834Y152629D01*
X1755242Y144758D01*
X1747370Y135166D01*
X1741521Y124223D01*
X1737919Y112349D01*
X1736703Y100000D01*
X1737919Y87651D01*
X1741521Y75777D01*
X1747370Y64834D01*
X1755242Y55242D01*
X1764834Y47371D01*
X1767337Y46032D01*
X1762407Y26347D01*
X1537593D01*
X1532662Y46032D01*
X1535166Y47371D01*
X1544757Y55242D01*
X1552629Y64834D01*
X1558478Y75777D01*
X1562081Y87651D01*
X1563297Y100000D01*
X1562081Y112349D01*
X1558478Y124223D01*
X1552629Y135166D01*
X1544757Y144758D01*
X1535166Y152629D01*
X1524223Y158479D01*
X1512348Y162081D01*
X1500000Y163297D01*
X1487651Y162081D01*
X1475777Y158479D01*
X1464834Y152629D01*
X1455242Y144758D01*
X1444757D01*
X1435166Y152629D01*
X1424223Y158479D01*
X1412348Y162081D01*
X1400000Y163297D01*
X1387651Y162081D01*
X1375777Y158479D01*
X1364834Y152629D01*
X1355242Y144758D01*
X1344757D01*
X1335166Y152629D01*
X1324223Y158479D01*
X1312348Y162081D01*
X1300000Y163297D01*
X1287651Y162081D01*
X1275777Y158479D01*
X1264834Y152629D01*
X1255242Y144758D01*
X1244757D01*
X1235166Y152629D01*
X1224223Y158479D01*
X1212348Y162081D01*
X1200000Y163297D01*
X1187651Y162081D01*
X1175777Y158479D01*
X1164834Y152629D01*
X1155242Y144758D01*
X1144757D01*
X1135166Y152629D01*
X1124223Y158479D01*
X1112348Y162081D01*
X1100000Y163297D01*
X1087651Y162081D01*
X1075777Y158479D01*
X1064834Y152629D01*
X1055242Y144758D01*
X1047370Y135166D01*
X1041521Y124223D01*
X1037919Y112349D01*
X1036703Y100000D01*
X1037919Y87651D01*
X1041521Y75777D01*
X1047370Y64834D01*
X1055242Y55242D01*
X1064834Y47371D01*
X1067337Y46032D01*
X1062407Y26347D01*
X953735D01*
X948804Y46032D01*
X951308Y47371D01*
X960899Y55242D01*
X968771Y64834D01*
X974620Y75777D01*
X978222Y87651D01*
X979439Y100000D01*
X978222Y112349D01*
X974620Y124223D01*
X968771Y135166D01*
X960899Y144758D01*
X951308Y152629D01*
X940364Y158479D01*
X928490Y162081D01*
X916142Y163297D01*
X903793Y162081D01*
X898819Y160572D01*
X879134Y162992D01*
Y162992D01*
X753150D01*
Y46032D01*
X753149Y37008D01*
X737880Y26347D01*
X26347D01*
Y2077590D01*
X287732D01*
X292838Y2065261D01*
X293906Y2057905D01*
X288846Y2051310D01*
X285375Y2042930D01*
X284191Y2033937D01*
Y1751278D01*
X280580Y1742561D01*
X279227Y1732284D01*
X280580Y1722006D01*
X284547Y1712429D01*
X290858Y1704205D01*
X299082Y1697894D01*
X308659Y1693927D01*
X318937Y1692574D01*
X329215Y1693927D01*
X338792Y1697894D01*
X347016Y1704205D01*
X353327Y1712429D01*
X357294Y1722006D01*
X358647Y1732284D01*
X357294Y1742561D01*
X353683Y1751278D01*
Y2019545D01*
X379392Y2045254D01*
X670995D01*
X682241Y2025569D01*
X681521Y2024223D01*
X677919Y2012349D01*
X676703Y2000000D01*
X677919Y1987651D01*
X681521Y1975777D01*
X687370Y1964834D01*
X695242Y1955242D01*
X704834Y1947371D01*
X715777Y1941521D01*
X727651Y1937919D01*
X740000Y1936703D01*
X752348Y1937919D01*
X764222Y1941521D01*
X775166Y1947371D01*
X784757Y1955242D01*
X795242D01*
X804834Y1947371D01*
X815777Y1941521D01*
X827651Y1937919D01*
X840000Y1936703D01*
X852348Y1937919D01*
X864222Y1941521D01*
X875166Y1947371D01*
X884757Y1955242D01*
X895242D01*
X904834Y1947371D01*
X915777Y1941521D01*
X927651Y1937919D01*
X940000Y1936703D01*
X952348Y1937919D01*
X964222Y1941521D01*
X975166Y1947371D01*
X984757Y1955242D01*
X995242D01*
X1004834Y1947371D01*
X1015777Y1941521D01*
X1027651Y1937919D01*
X1040000Y1936703D01*
X1052348Y1937919D01*
X1064223Y1941521D01*
X1075166Y1947371D01*
X1076634Y1948576D01*
X1096319Y1939265D01*
Y1915000D01*
X1097807Y1903695D01*
X1102171Y1893160D01*
X1109113Y1884113D01*
X1146319Y1846907D01*
Y1721432D01*
X1126634Y1709633D01*
X1126585Y1709660D01*
X1114711Y1713262D01*
X1102362Y1714478D01*
X1090014Y1713262D01*
X1078139Y1709660D01*
X1067196Y1703811D01*
X1057604Y1695939D01*
X1049733Y1686347D01*
X1043883Y1675404D01*
X1040281Y1663530D01*
X1039065Y1651181D01*
X1040281Y1638833D01*
X1043883Y1626958D01*
X1049733Y1616015D01*
X1057604Y1606424D01*
X1067196Y1598552D01*
X1078139Y1592703D01*
X1090014Y1589101D01*
X1102362Y1587884D01*
X1114711Y1589101D01*
X1126585Y1592703D01*
X1126634Y1592729D01*
X1146319Y1580930D01*
Y1529306D01*
X1126634Y1517507D01*
X1126585Y1517534D01*
X1114711Y1521136D01*
X1102362Y1522352D01*
X1090014Y1521136D01*
X1078139Y1517534D01*
X1067196Y1511685D01*
X1057604Y1503813D01*
X1049733Y1494221D01*
X1043883Y1483278D01*
X1040281Y1471404D01*
X1039065Y1459055D01*
X1040281Y1446707D01*
X1043883Y1434832D01*
X1049733Y1423889D01*
X1057604Y1414297D01*
X1067196Y1406426D01*
X1078139Y1400576D01*
X1090014Y1396975D01*
X1102362Y1395758D01*
X1114711Y1396975D01*
X1126585Y1400576D01*
X1126634Y1400603D01*
X1146319Y1388804D01*
Y1275000D01*
X1147808Y1263695D01*
X1152171Y1253160D01*
X1159113Y1244113D01*
X1292714Y1110512D01*
X1291069Y1099832D01*
X1286045Y1089343D01*
X1277746Y1086825D01*
X1266803Y1080976D01*
X1257211Y1073104D01*
X1249339Y1063512D01*
X1243490Y1052569D01*
X1239888Y1040695D01*
X1238672Y1028347D01*
X1239888Y1015998D01*
X1243490Y1004124D01*
X1249339Y993181D01*
X1239877Y973681D01*
X1164060D01*
X1154598Y993181D01*
X1160447Y1004124D01*
X1164049Y1015998D01*
X1165265Y1028347D01*
X1164049Y1040695D01*
X1160447Y1052569D01*
X1154598Y1063512D01*
X1146726Y1073104D01*
X1145649Y1073988D01*
Y1166938D01*
X1144161Y1178243D01*
X1139797Y1188778D01*
X1132855Y1197824D01*
X1109793Y1220887D01*
X1100746Y1227829D01*
X1090211Y1232192D01*
X1078906Y1233681D01*
X450000D01*
X438695Y1232192D01*
X428160Y1227829D01*
X419113Y1220887D01*
X371082Y1172855D01*
X364140Y1163809D01*
X359776Y1153274D01*
X358288Y1141968D01*
Y1073988D01*
X357211Y1073104D01*
X349339Y1063512D01*
X343490Y1052569D01*
X339888Y1040695D01*
X338672Y1028347D01*
X339888Y1015998D01*
X343490Y1004124D01*
X349339Y993181D01*
X357211Y983589D01*
X358288Y982705D01*
Y860062D01*
X89113Y590887D01*
X82171Y581840D01*
X77808Y571305D01*
X76319Y560000D01*
Y242992D01*
X72008D01*
Y117008D01*
X197992D01*
Y235934D01*
X201634Y241676D01*
X213895Y252123D01*
X220000Y251319D01*
X286907D01*
X291319Y246907D01*
Y225642D01*
X290242Y224758D01*
X282371Y215166D01*
X276521Y204223D01*
X272919Y192349D01*
X271703Y180000D01*
X272919Y167651D01*
X276521Y155777D01*
X282371Y144834D01*
X290242Y135242D01*
X299834Y127371D01*
X310777Y121521D01*
X322651Y117919D01*
X335000Y116703D01*
X347349Y117919D01*
X359223Y121521D01*
X370166Y127371D01*
X379758Y135242D01*
X387629Y144834D01*
X393479Y155777D01*
X397081Y167651D01*
X398297Y180000D01*
X397081Y192349D01*
X393479Y204223D01*
X387629Y215166D01*
X379758Y224758D01*
X378681Y225642D01*
Y265000D01*
X377192Y276305D01*
X372829Y286840D01*
X365887Y295887D01*
X335887Y325887D01*
X326840Y332829D01*
X316305Y337192D01*
X305000Y338681D01*
X238681D01*
Y375138D01*
X253538Y381914D01*
X258366Y382641D01*
X266803Y375717D01*
X277746Y369868D01*
X289620Y366266D01*
X301969Y365050D01*
X314317Y366266D01*
X326191Y369868D01*
X337134Y375717D01*
X338603Y376922D01*
X358288Y367612D01*
Y353062D01*
X359776Y341757D01*
X364140Y331222D01*
X371082Y322176D01*
X394144Y299113D01*
X403191Y292171D01*
X413726Y287808D01*
X425031Y286319D01*
X878906D01*
X890211Y287808D01*
X900746Y292171D01*
X909793Y299113D01*
X932855Y322176D01*
X939797Y331222D01*
X944161Y341757D01*
X945649Y353062D01*
Y367612D01*
X965334Y376922D01*
X966803Y375717D01*
X977746Y369868D01*
X989620Y366266D01*
X1001968Y365050D01*
X1014317Y366266D01*
X1026191Y369868D01*
X1037134Y375717D01*
X1046726Y383589D01*
X1057211D01*
X1066803Y375717D01*
X1077746Y369868D01*
X1089620Y366266D01*
X1101968Y365050D01*
X1114317Y366266D01*
X1126191Y369868D01*
X1137134Y375717D01*
X1146726Y383589D01*
X1157211D01*
X1166803Y375717D01*
X1177746Y369868D01*
X1189620Y366266D01*
X1201968Y365050D01*
X1214317Y366266D01*
X1226191Y369868D01*
X1237134Y375717D01*
X1246726Y383589D01*
X1254598Y393181D01*
X1260447Y404124D01*
X1264049Y415998D01*
X1265265Y428346D01*
X1264049Y440695D01*
X1260447Y452569D01*
X1257464Y458150D01*
X1263828Y473154D01*
X1268309Y477835D01*
X1335628D01*
X1340109Y473154D01*
X1346473Y458150D01*
X1343490Y452569D01*
X1339888Y440695D01*
X1338672Y428346D01*
X1339888Y415998D01*
X1343490Y404124D01*
X1349339Y393181D01*
X1357211Y383589D01*
X1366803Y375717D01*
X1377746Y369868D01*
X1389620Y366266D01*
X1401968Y365050D01*
X1414317Y366266D01*
X1426191Y369868D01*
X1437134Y375717D01*
X1446726Y383589D01*
X1457211D01*
X1466803Y375717D01*
X1477746Y369868D01*
X1489620Y366266D01*
X1501968Y365050D01*
X1514317Y366266D01*
X1526191Y369868D01*
X1537134Y375717D01*
X1546726Y383589D01*
X1557211D01*
X1566803Y375717D01*
X1577746Y369868D01*
X1589620Y366266D01*
X1601968Y365050D01*
X1614317Y366266D01*
X1626191Y369868D01*
X1637134Y375717D01*
X1646726Y383589D01*
X1657211D01*
X1666803Y375717D01*
X1677746Y369868D01*
X1689620Y366266D01*
X1701968Y365050D01*
X1714317Y366266D01*
X1726191Y369868D01*
X1737134Y375717D01*
X1738603Y376922D01*
X1758288Y367612D01*
Y258062D01*
X1759776Y246757D01*
X1764140Y236222D01*
X1771082Y227176D01*
X1794144Y204113D01*
X1803191Y197171D01*
X1813726Y192808D01*
X1825031Y191319D01*
X2350000D01*
X2361305Y192808D01*
X2371840Y197171D01*
X2380887Y204113D01*
X2430887Y254113D01*
X2437829Y263160D01*
X2442192Y273695D01*
X2443681Y285000D01*
Y1095000D01*
X2442192Y1106305D01*
X2437829Y1116840D01*
X2430887Y1125887D01*
X2229067Y1327707D01*
X2228435Y1335899D01*
X2229304Y1339348D01*
X2250791Y1345497D01*
X2262176Y1334113D01*
X2271222Y1327171D01*
X2281757Y1322808D01*
X2293062Y1321319D01*
X2543299D01*
X2546877Y1318574D01*
X2559806Y1313219D01*
X2573681Y1311392D01*
X2587555Y1313219D01*
X2600485Y1318574D01*
X2611587Y1327093D01*
X2620107Y1338196D01*
X2625462Y1351125D01*
X2627289Y1365000D01*
X2625462Y1378875D01*
X2620107Y1391804D01*
X2611587Y1402907D01*
X2600485Y1411426D01*
X2587555Y1416781D01*
X2573681Y1418608D01*
X2559806Y1416781D01*
X2546877Y1411426D01*
X2543299Y1408681D01*
X2435827D01*
Y1520472D01*
X2435827Y1520472D01*
X2433406Y1540157D01*
X2434915Y1545132D01*
X2436131Y1557480D01*
X2434915Y1569829D01*
X2431313Y1581703D01*
X2425464Y1592646D01*
X2417592Y1602238D01*
Y1612723D01*
X2425464Y1622314D01*
X2431313Y1633258D01*
X2434915Y1645132D01*
X2436131Y1657480D01*
X2434915Y1669829D01*
X2431313Y1681703D01*
X2425464Y1692646D01*
X2417592Y1702238D01*
X2408001Y1710110D01*
X2397057Y1715959D01*
X2385183Y1719561D01*
X2372835Y1720777D01*
X2360486Y1719561D01*
X2348612Y1715959D01*
X2337669Y1710110D01*
X2328077Y1702238D01*
X2320205Y1692646D01*
X2314356Y1681703D01*
X2310754Y1669829D01*
X2309538Y1657480D01*
X2310754Y1645132D01*
X2314356Y1633258D01*
X2317765Y1626879D01*
X2303436Y1612549D01*
X2297057Y1615959D01*
X2285183Y1619561D01*
X2272835Y1620777D01*
X2260486Y1619561D01*
X2248612Y1615959D01*
X2237669Y1610110D01*
X2228077Y1602238D01*
X2223175Y1596264D01*
X2203062D01*
X2191757Y1594776D01*
X2181222Y1590412D01*
X2172176Y1583471D01*
X2149113Y1560408D01*
X2142171Y1551362D01*
X2137808Y1540827D01*
X2136319Y1529521D01*
Y1315000D01*
X2137808Y1303695D01*
X2142171Y1293160D01*
X2149113Y1284113D01*
X2356319Y1076907D01*
Y303093D01*
X2331907Y278681D01*
X1845649D01*
Y367612D01*
X1865334Y376922D01*
X1866803Y375717D01*
X1877746Y369868D01*
X1889620Y366266D01*
X1901968Y365050D01*
X1914317Y366266D01*
X1926191Y369868D01*
X1937134Y375717D01*
X1946726Y383589D01*
X1957211D01*
X1966803Y375717D01*
X1977746Y369868D01*
X1989620Y366266D01*
X2001968Y365050D01*
X2014317Y366266D01*
X2026191Y369868D01*
X2037134Y375717D01*
X2046726Y383589D01*
X2057211D01*
X2066803Y375717D01*
X2077746Y369868D01*
X2089620Y366266D01*
X2101968Y365050D01*
X2114317Y366266D01*
X2126191Y369868D01*
X2137134Y375717D01*
X2146726Y383589D01*
X2157211D01*
X2166803Y375717D01*
X2177746Y369868D01*
X2189620Y366266D01*
X2201968Y365050D01*
X2214317Y366266D01*
X2226191Y369868D01*
X2237134Y375717D01*
X2246726Y383589D01*
X2254598Y393181D01*
X2260447Y404124D01*
X2264049Y415998D01*
X2265265Y428346D01*
X2264049Y440695D01*
X2260447Y452569D01*
X2254598Y463512D01*
X2246726Y473104D01*
X2237134Y480976D01*
X2226191Y486825D01*
X2214317Y490427D01*
X2201968Y491643D01*
X2189620Y490427D01*
X2177746Y486825D01*
X2166803Y480976D01*
X2157211Y473104D01*
X2146726D01*
X2137134Y480976D01*
X2126191Y486825D01*
X2114317Y490427D01*
X2101968Y491643D01*
X2089620Y490427D01*
X2077746Y486825D01*
X2066803Y480976D01*
X2065334Y479771D01*
X2045649Y489081D01*
Y528032D01*
X2044161Y539337D01*
X2039797Y549872D01*
X2032855Y558918D01*
X1955887Y635887D01*
X1946840Y642829D01*
X1936305Y647192D01*
X1925000Y648681D01*
X1530382D01*
X1526804Y651426D01*
X1513875Y656781D01*
X1500000Y658608D01*
X1486125Y656781D01*
X1473196Y651426D01*
X1462093Y642907D01*
X1453574Y631804D01*
X1448219Y618875D01*
X1446392Y605000D01*
X1448219Y591125D01*
X1450805Y584882D01*
X1442537Y568526D01*
X1438736Y565197D01*
X926547D01*
X915241Y563708D01*
X904706Y559344D01*
X895660Y552403D01*
X871082Y527824D01*
X864140Y518778D01*
X862347Y514450D01*
X841590D01*
X839797Y518778D01*
X832855Y527824D01*
X809793Y550887D01*
X800746Y557829D01*
X790211Y562192D01*
X778906Y563681D01*
X343293D01*
X335139Y583366D01*
X532855Y781082D01*
X539797Y790128D01*
X544161Y800663D01*
X545649Y811968D01*
Y916904D01*
X563149Y929699D01*
X565334Y929666D01*
X571082Y922176D01*
X594144Y899113D01*
X603191Y892171D01*
X613726Y887808D01*
X625031Y886319D01*
X2078906D01*
X2090211Y887808D01*
X2100746Y892171D01*
X2109793Y899113D01*
X2132855Y922176D01*
X2139797Y931222D01*
X2144161Y941757D01*
X2145649Y953062D01*
Y965354D01*
X2264961D01*
Y1091339D01*
X2138977D01*
X2138976Y1091339D01*
X2119291Y1088918D01*
X2114317Y1090427D01*
X2101968Y1091643D01*
X2089620Y1090427D01*
X2077746Y1086825D01*
X2066803Y1080976D01*
X2057211Y1073104D01*
X2046726D01*
X2037134Y1080976D01*
X2026191Y1086825D01*
X2014317Y1090427D01*
X2001968Y1091643D01*
X1989620Y1090427D01*
X1977746Y1086825D01*
X1966803Y1080976D01*
X1965334Y1079771D01*
X1945649Y1089081D01*
Y1208032D01*
X1944161Y1219337D01*
X1939797Y1229872D01*
X1932855Y1238918D01*
X1765887Y1405887D01*
X1756840Y1412829D01*
X1746305Y1417192D01*
X1735000Y1418681D01*
X1543093D01*
X1475887Y1485887D01*
X1453681Y1508093D01*
Y1558950D01*
X1469685Y1575290D01*
X1479963Y1576643D01*
X1488679Y1580254D01*
X1937316D01*
X1946309Y1581438D01*
X1954689Y1584909D01*
X1961885Y1590431D01*
X1974569Y1603115D01*
X1980091Y1610311D01*
X1983562Y1618691D01*
X1984746Y1627684D01*
Y1649606D01*
X2012992D01*
X2012992Y1649606D01*
X2032677Y1652027D01*
X2037651Y1650518D01*
X2050000Y1649302D01*
X2062349Y1650518D01*
X2074223Y1654120D01*
X2085166Y1659969D01*
X2094758Y1667841D01*
X2102629Y1677432D01*
X2108479Y1688376D01*
X2112081Y1700250D01*
X2113297Y1712598D01*
X2112081Y1724947D01*
X2108479Y1736821D01*
X2102629Y1747764D01*
X2094758Y1757356D01*
X2093681Y1758240D01*
Y1841938D01*
X2092192Y1853243D01*
X2087829Y1863778D01*
X2080887Y1872824D01*
X2057824Y1895887D01*
X2048778Y1902829D01*
X2038243Y1907192D01*
X2026938Y1908681D01*
X1483681D01*
Y1939265D01*
X1503366Y1948575D01*
X1504834Y1947371D01*
X1515777Y1941521D01*
X1527651Y1937919D01*
X1540000Y1936703D01*
X1552348Y1937919D01*
X1564223Y1941521D01*
X1575166Y1947371D01*
X1584757Y1955242D01*
X1595242D01*
X1604834Y1947371D01*
X1615777Y1941521D01*
X1627651Y1937919D01*
X1640000Y1936703D01*
X1652348Y1937919D01*
X1664223Y1941521D01*
X1675166Y1947371D01*
X1684757Y1955242D01*
X1692629Y1964834D01*
X1698478Y1975777D01*
X1702081Y1987651D01*
X1703297Y2000000D01*
X1702081Y2012349D01*
X1698478Y2024223D01*
X1692629Y2035166D01*
X1684757Y2044758D01*
X1675166Y2052629D01*
X1664223Y2058479D01*
X1669035Y2077590D01*
X1770965D01*
X1775777Y2058479D01*
D02*
G37*
G36*
X2006319Y1775591D02*
X1898753D01*
Y1798114D01*
X1898290Y1801634D01*
X1907271Y1816416D01*
X1911542Y1820642D01*
X1912917Y1821319D01*
X2006319D01*
Y1775591D01*
D02*
G37*
G36*
X1487883Y1809392D02*
X1489203Y1799368D01*
X1493169Y1789791D01*
X1499480Y1781567D01*
X1507704Y1775256D01*
X1517282Y1771289D01*
X1527559Y1769936D01*
X1537837Y1771289D01*
X1547414Y1775256D01*
X1548243Y1775892D01*
X1831247D01*
Y1733282D01*
X1830610Y1732453D01*
X1826643Y1722876D01*
X1825290Y1712598D01*
X1826643Y1702321D01*
X1830610Y1692744D01*
X1836921Y1684519D01*
X1845145Y1678209D01*
X1854722Y1674242D01*
X1867629Y1656313D01*
X1868084Y1653440D01*
X1866962Y1649746D01*
X1488679D01*
X1479963Y1653357D01*
X1469685Y1654710D01*
X1453681Y1671050D01*
Y1812249D01*
X1471616Y1819329D01*
X1487883Y1809392D01*
D02*
G37*
G36*
X1414113Y1424113D02*
X1482360Y1355866D01*
X1474207Y1336181D01*
X1445593D01*
X1383681Y1398093D01*
Y1428826D01*
X1401867Y1436359D01*
X1414113Y1424113D01*
D02*
G37*
G36*
X1558288Y1103887D02*
X1538603Y1099971D01*
X1537829Y1101840D01*
X1530887Y1110887D01*
X1500139Y1141634D01*
X1508293Y1161319D01*
X1558288D01*
Y1103887D01*
D02*
G37*
G36*
X1858288Y1189938D02*
Y1089081D01*
X1838603Y1079771D01*
X1837134Y1080976D01*
X1826191Y1086825D01*
X1814317Y1090427D01*
X1801968Y1091643D01*
X1789620Y1090427D01*
X1777746Y1086825D01*
X1766803Y1080976D01*
X1765334Y1079771D01*
X1745649Y1089081D01*
Y1150689D01*
Y1273032D01*
X1745390Y1274997D01*
X1764035Y1284191D01*
X1858288Y1189938D01*
D02*
G37*
%LPC*%
G36*
X737520Y1778450D02*
X727242Y1777097D01*
X717665Y1773130D01*
X709441Y1766819D01*
X703130Y1758595D01*
X699163Y1749018D01*
X697810Y1738740D01*
X699163Y1728463D01*
X702774Y1719746D01*
Y1426475D01*
X699163Y1417758D01*
X697810Y1407480D01*
X699163Y1397203D01*
X703130Y1387625D01*
X709441Y1379401D01*
X717665Y1373091D01*
X727242Y1369124D01*
X737520Y1367771D01*
X747797Y1369124D01*
X757375Y1373091D01*
X765599Y1379401D01*
X771909Y1387625D01*
X775876Y1397203D01*
X777229Y1407480D01*
X775876Y1417758D01*
X772266Y1426475D01*
Y1719746D01*
X775876Y1728463D01*
X777229Y1738740D01*
X775876Y1749018D01*
X771909Y1758595D01*
X765599Y1766819D01*
X757375Y1773130D01*
X747797Y1777097D01*
X737520Y1778450D01*
D02*
G37*
G36*
X2012992Y1460630D02*
X1887008D01*
Y1334646D01*
X2012992D01*
Y1460630D01*
D02*
G37*
%LPD*%
D22*
X1445000Y1455000D02*
X1525000Y1375000D01*
X1410000Y1490000D02*
X1445000Y1455000D01*
X1140000Y1915000D02*
X1190000Y1865000D01*
Y1275000D02*
X1335000Y1130000D01*
X1190000Y1275000D02*
Y1865000D01*
X1140000Y1915000D02*
Y2000000D01*
X1265000Y1320000D02*
Y1905000D01*
X1240000Y1930000D02*
Y2000000D01*
Y1930000D02*
X1265000Y1905000D01*
Y1320000D02*
X1380000Y1205000D01*
X1410000Y1835000D02*
X1440000Y1865000D01*
X1410000Y1490000D02*
Y1835000D01*
X1701968Y1150689D02*
Y1273032D01*
Y1028347D02*
Y1150689D01*
X1340000Y1380000D02*
X1427500Y1292500D01*
X1340000Y2000000D02*
X1340000Y2000000D01*
Y1380000D02*
Y2000000D01*
X1572500Y1205000D02*
X1578906D01*
X1380000D02*
X1572500D01*
X2050000Y1712598D02*
Y1841938D01*
X1440000Y1865000D02*
X2026938D01*
X2050000Y1841938D01*
X1440000Y2000000D02*
X1440000Y2000000D01*
Y1865000D02*
Y2000000D01*
X1525000Y1375000D02*
X1735000D01*
X1877390Y521516D02*
X1901968Y496938D01*
X901968D02*
X926547Y521516D01*
X1603484D02*
X1877390D01*
X926547D02*
X1603484D01*
X1601968Y1028347D02*
Y1181938D01*
X1578906Y1205000D02*
X1601968Y1181938D01*
X1101968Y1028347D02*
Y1166938D01*
X450000Y1190000D02*
X1078906D01*
X1101968Y1166938D01*
X501969Y811968D02*
Y1096938D01*
X525031Y1120000D02*
X978906D01*
X1001968Y1096938D01*
Y1028347D02*
Y1096938D01*
X901968Y428346D02*
Y496938D01*
Y353062D02*
Y428346D01*
X1682500Y1292500D02*
X1701968Y1273032D01*
X1450000Y1130000D02*
X1500000Y1080000D01*
X1335000Y1130000D02*
X1450000D01*
X1500000Y1030315D02*
X1501968Y1028347D01*
X1500000Y1030315D02*
Y1080000D01*
X1825031Y235000D02*
X2350000D01*
X1801968Y258062D02*
Y428346D01*
Y258062D02*
X1825031Y235000D01*
X625031Y930000D02*
X801968D01*
X601968Y953062D02*
Y1028347D01*
Y953062D02*
X625031Y930000D01*
X801968D02*
X1400000D01*
X801968D02*
Y1028347D01*
X1901968D02*
Y1208032D01*
Y930000D02*
Y1028347D01*
Y930000D02*
X2078906D01*
X2101968Y953062D02*
Y1028347D01*
X2078906Y930000D02*
X2101968Y953062D01*
X1735000Y1375000D02*
X1901968Y1208032D01*
X401969Y353062D02*
X425031Y330000D01*
X401969Y353062D02*
Y428346D01*
X401969Y428346D02*
X401969Y428346D01*
X1400000Y930000D02*
X1401968Y931968D01*
Y1028347D01*
X1901968Y428346D02*
Y496938D01*
X2001968Y428346D02*
Y528032D01*
X1925000Y605000D02*
X2001968Y528032D01*
X1500000Y605000D02*
X1925000D01*
X1400000Y930000D02*
X1901968D01*
X425031Y330000D02*
X878906D01*
X901968Y353062D01*
X330000Y520000D02*
X778906D01*
X801968Y428346D02*
Y496938D01*
X301969Y428346D02*
Y491969D01*
X401969Y1028347D02*
Y1141968D01*
X450000Y1190000D01*
X501969Y1096938D02*
X525031Y1120000D01*
X778906Y520000D02*
X801968Y496938D01*
X301969Y491969D02*
X330000Y520000D01*
X195000Y320000D02*
X220000Y295000D01*
X305000D01*
X335000Y265000D01*
Y180000D02*
Y265000D01*
X120000Y560000D02*
X401969Y841968D01*
X135000Y180000D02*
Y186392D01*
X120000Y201392D02*
X135000Y186392D01*
X120000Y201392D02*
Y560000D01*
X195000Y505000D02*
X501969Y811968D01*
X195000Y320000D02*
Y505000D01*
X401969Y841968D02*
Y1016968D01*
X2270000Y1388062D02*
Y1454646D01*
Y1388062D02*
X2293062Y1365000D01*
X2573681D01*
X2270000Y1454646D02*
X2272835Y1457480D01*
X2400000Y285000D02*
Y1095000D01*
X2350000Y235000D02*
X2400000Y285000D01*
X2180000Y1315000D02*
X2400000Y1095000D01*
X2180000Y1315000D02*
Y1529521D01*
X2203062Y1552584D02*
X2267938D01*
X2180000Y1529521D02*
X2203062Y1552584D01*
X2267938D02*
X2272835Y1557480D01*
X1600000Y100000D02*
X1600000Y100000D01*
Y255000D01*
X1440000Y290000D02*
X1565000D01*
X1600000Y255000D01*
X1400000Y330000D02*
X1440000Y290000D01*
X1400000Y426378D02*
X1401968Y428346D01*
X1400000Y330000D02*
Y426378D01*
X1427500Y1292500D02*
X1682500D01*
X1500000Y100000D02*
X1500000Y100000D01*
D23*
X1937316Y1615000D02*
X1950000Y1627684D01*
X1469685Y1615000D02*
X1937316D01*
X1950000Y1627684D02*
Y1712598D01*
X318937Y1736830D02*
X321600Y1734167D01*
X321615D01*
X318937Y1736830D02*
Y2033937D01*
X365000Y2080000D02*
X1515000D01*
X318937Y2033937D02*
X365000Y2080000D01*
X737520Y1407480D02*
Y1738740D01*
X1515000Y2080000D02*
X1540000Y2055000D01*
Y2000000D02*
Y2055000D01*
X1540000Y2000000D02*
X1540000Y2000000D01*
D27*
X1865000Y1712598D02*
Y1798114D01*
X1853469Y1809646D02*
X1865000Y1798114D01*
X1527559Y1809646D02*
X1853469D01*
D30*
X816142Y100000D02*
D03*
X1950000Y1397638D02*
D03*
Y1712598D02*
D03*
X135000Y180000D02*
D03*
D31*
X916142Y100000D02*
D03*
X2101968Y1028347D02*
D03*
X2001968D02*
D03*
X1901968D02*
D03*
X1801968D02*
D03*
X1701968D02*
D03*
X1601968D02*
D03*
X1501968D02*
D03*
X1401968D02*
D03*
X1301968D02*
D03*
X1201968D02*
D03*
X1101968D02*
D03*
X1001968D02*
D03*
X901968D02*
D03*
X801968D02*
D03*
X701968D02*
D03*
X601968D02*
D03*
X501969D02*
D03*
X401969D02*
D03*
X301969D02*
D03*
X2201968Y428346D02*
D03*
X2101968D02*
D03*
X2001968D02*
D03*
X1901968D02*
D03*
X1801968D02*
D03*
X1701968D02*
D03*
X1601968D02*
D03*
X1501968D02*
D03*
X1401968D02*
D03*
X1301968D02*
D03*
X1201968D02*
D03*
X1101968D02*
D03*
X1001968D02*
D03*
X901968D02*
D03*
X801968D02*
D03*
X701968D02*
D03*
X601968D02*
D03*
X501969D02*
D03*
X401969D02*
D03*
X301969D02*
D03*
X940000Y2000000D02*
D03*
X1040000D02*
D03*
X1240000D02*
D03*
X1440000D02*
D03*
X1640000D02*
D03*
X1540000D02*
D03*
X1340000D02*
D03*
X1140000D02*
D03*
X840000D02*
D03*
X740000D02*
D03*
X1800000D02*
D03*
X1900000D02*
D03*
X2100000D02*
D03*
X2500000D02*
D03*
X2000000D02*
D03*
X2200000D02*
D03*
X2300000D02*
D03*
X2400000D02*
D03*
X2000000Y100000D02*
D03*
X2100000D02*
D03*
X2300000D02*
D03*
X2500000D02*
D03*
X2400000D02*
D03*
X2200000D02*
D03*
X1300000D02*
D03*
X1800000D02*
D03*
X1400000D02*
D03*
X1200000D02*
D03*
X1100000D02*
D03*
X1500000D02*
D03*
X1600000D02*
D03*
X1700000D02*
D03*
X1102362Y1651181D02*
D03*
Y1459055D02*
D03*
X2050000Y1397638D02*
D03*
Y1712598D02*
D03*
X335000Y180000D02*
D03*
X235000D02*
D03*
X2272835Y1457480D02*
D03*
X2372835Y1557480D02*
D03*
Y1657480D02*
D03*
X2272835Y1557480D02*
D03*
Y1657480D02*
D03*
D32*
X2201968Y1028347D02*
D03*
X2372835Y1457480D02*
D03*
D33*
X178740Y1632874D02*
D03*
Y1457677D02*
D03*
D34*
X60630Y1380905D02*
D03*
Y1709646D02*
D03*
D35*
X1771653Y1553150D02*
D03*
X1701968Y1150689D02*
D03*
X1572500Y1205000D02*
D03*
X511811Y1318898D02*
D03*
Y1496063D02*
D03*
X385000Y1780000D02*
D03*
X1865000Y1712598D02*
D03*
X60000Y1545000D02*
D03*
X944882Y1555118D02*
D03*
X1445000Y1455000D02*
D03*
X737520Y1738740D02*
D03*
Y1407480D02*
D03*
X318937Y1732284D02*
D03*
X1527559Y1809646D02*
D03*
X1469685Y1615000D02*
D03*
D36*
X1603484Y521516D02*
D03*
X1500000Y605000D02*
D03*
X2573681Y1365000D02*
D03*
%TF.MD5,74ba69265bede7bf0e3b1840262c9681*%
M02*
