%TF.GenerationSoftware,Altium Limited,Altium Designer,20.2.6 (244)*%
G04 Layer_Color=16711935*
%FSLAX26Y26*%
%MOIN*%
%TF.SameCoordinates,5A7C1849-F1A5-4743-A48D-7E663CB7BB3B*%
%TF.FilePolarity,Positive*%
%TF.FileFunction,Other,Mechanical_1*%
%TF.Part,Single*%
G01*
G75*
%TA.AperFunction,NonConductor*%
%ADD54C,0.003937*%
%ADD55C,0.010000*%
D54*
X3543Y1328740D02*
Y1761811D01*
D55*
X21260Y1320866D02*
X60617D01*
Y1301187D01*
X54058Y1294628D01*
X40939D01*
X34379Y1301187D01*
Y1320866D01*
X54058Y1255271D02*
X60617Y1261830D01*
Y1274949D01*
X54058Y1281509D01*
X27820D01*
X21260Y1274949D01*
Y1261830D01*
X27820Y1255271D01*
X60617Y1242151D02*
X21260D01*
Y1222473D01*
X27820Y1215913D01*
X34379D01*
X40939Y1222473D01*
Y1242151D01*
Y1222473D01*
X47498Y1215913D01*
X54058D01*
X60617Y1222473D01*
Y1242151D01*
Y1137198D02*
Y1163437D01*
X21260D01*
Y1137198D01*
X40939Y1163437D02*
Y1150317D01*
X60617Y1124079D02*
X21260D01*
Y1104400D01*
X27820Y1097841D01*
X54058D01*
X60617Y1104400D01*
Y1124079D01*
X54058Y1058484D02*
X60617Y1065043D01*
Y1078162D01*
X54058Y1084722D01*
X27820D01*
X21260Y1078162D01*
Y1065043D01*
X27820Y1058484D01*
X40939D01*
Y1071603D01*
X60617Y1019126D02*
Y1045364D01*
X21260D01*
Y1019126D01*
X40939Y1045364D02*
Y1032245D01*
%TF.MD5,1c6b5f056cb1029663e1ef82bb517d73*%
M02*
