%TF.GenerationSoftware,Altium Limited,Altium Designer,20.2.6 (244)*%
G04 Layer_Color=0*
%FSLAX26Y26*%
%MOIN*%
%TF.SameCoordinates,5A7C1849-F1A5-4743-A48D-7E663CB7BB3B*%
%TF.FilePolarity,Positive*%
%TF.FileFunction,Other,Top_Component_Center*%
%TF.Part,Single*%
G01*
G75*
%TA.AperFunction,NonConductor*%
%ADD54C,0.003937*%
D54*
X310315Y60000D02*
X349685D01*
X330000Y40315D02*
Y79685D01*
X1677284Y1523622D02*
X1716653D01*
X1696968Y1503937D02*
Y1543307D01*
X925197Y1643701D02*
X964567D01*
X944882Y1624016D02*
Y1663386D01*
X925197Y1466535D02*
X964567D01*
X944882Y1446850D02*
Y1486220D01*
X2000000Y1377953D02*
Y1417323D01*
X1980315Y1397638D02*
X2019685D01*
X2000000Y1692913D02*
Y1732283D01*
X1980315Y1712598D02*
X2019685D01*
X2171968Y196850D02*
Y236220D01*
X2152284Y216535D02*
X2191653D01*
X140000Y40315D02*
Y79685D01*
X120315Y60000D02*
X159685D01*
X492126Y1722441D02*
Y1761811D01*
X472441Y1742126D02*
X511811D01*
X492126Y1643701D02*
Y1683071D01*
X472441Y1663386D02*
X511811D01*
X492126Y1564961D02*
Y1604331D01*
X472441Y1584646D02*
X511811D01*
X492126Y1387795D02*
Y1427165D01*
X472441Y1407480D02*
X511811D01*
X492126Y1299213D02*
Y1338583D01*
X472441Y1318898D02*
X511811D01*
X492126Y1476378D02*
Y1515748D01*
X472441Y1496063D02*
X511811D01*
X2000000Y1535433D02*
Y1574803D01*
X1980315Y1555118D02*
X2019685D01*
X1550000Y196850D02*
Y236220D01*
X1530315Y216535D02*
X1569685D01*
X492126Y1811024D02*
Y1850394D01*
X472441Y1830709D02*
X511811D01*
X285433Y1801181D02*
Y1840551D01*
X265748Y1820866D02*
X305118D01*
X285433Y1958661D02*
Y1998032D01*
X265748Y1978347D02*
X305118D01*
%TF.MD5,e5a859353f27f1cc12bdd418bf5743d1*%
M02*
