%TF.GenerationSoftware,Altium Limited,Altium Designer,20.2.6 (244)*%
G04 Layer_Color=32768*
%FSLAX26Y26*%
%MOIN*%
%TF.SameCoordinates,5A7C1849-F1A5-4743-A48D-7E663CB7BB3B*%
%TF.FilePolarity,Positive*%
%TF.FileFunction,Other,Mechanical_15*%
%TF.Part,Single*%
G01*
G75*
%TA.AperFunction,NonConductor*%
%ADD54C,0.003937*%
%ADD56C,0.001968*%
D54*
X1251968Y708662D02*
Y748032D01*
X1232284Y728346D02*
X1271653D01*
X1417323Y1535433D02*
Y1574803D01*
X1397638Y1555118D02*
X1437008D01*
X1082677Y1555118D02*
X1122047D01*
X1102362Y1535433D02*
Y1574803D01*
X119685Y1525591D02*
Y1564961D01*
X100000Y1545276D02*
X139370D01*
X98425Y1801181D02*
Y1840551D01*
X78740Y1820866D02*
X118110D01*
X30512Y1854331D02*
X166339D01*
X30512Y1787402D02*
X166339D01*
X30512D02*
Y1854331D01*
X166339Y1787402D02*
Y1854331D01*
X98425Y1958661D02*
Y1998032D01*
X78740Y1978347D02*
X118110D01*
X30512Y2011811D02*
X166339D01*
X30512Y1944882D02*
X166339D01*
X30512D02*
Y2011811D01*
X166339Y1944882D02*
Y2011811D01*
D56*
X846457Y100000D02*
X885827D01*
X866142Y80315D02*
Y119685D01*
X752362Y39173D02*
Y160827D01*
Y39173D02*
X979921D01*
Y160827D01*
X752362D02*
X979921D01*
X1210630Y1348425D02*
X1624016D01*
X1210630Y1761811D02*
X1624016D01*
Y1348425D02*
Y1761811D01*
X1210630Y1348425D02*
Y1761811D01*
X676220Y2060827D02*
X1703779D01*
X676220Y1939173D02*
Y2060827D01*
Y1939173D02*
X1703779D01*
Y2060827D01*
X1190000Y1980315D02*
Y2019685D01*
X1170315Y2000000D02*
X1209685D01*
X2130315D02*
X2169685D01*
X2150000Y1980315D02*
Y2019685D01*
X1736220Y2060827D02*
X2563779D01*
X1736220Y1939173D02*
Y2060827D01*
Y1939173D02*
X2563779D01*
Y2060827D01*
X1936220Y160827D02*
X2563779D01*
X1936220Y39173D02*
Y160827D01*
Y39173D02*
X2563779D01*
Y160827D01*
X2250000Y80315D02*
Y119685D01*
X2230315Y100000D02*
X2269685D01*
X1863779Y39173D02*
Y160827D01*
X1036220Y39173D02*
X1863779D01*
X1036220D02*
Y160827D01*
X1863779D01*
X1450000Y80315D02*
Y119685D01*
X1430315Y100000D02*
X1469685D01*
X1006908Y1782486D02*
X1197810D01*
Y1327757D02*
Y1782486D01*
X1006915Y1327757D02*
X1197810D01*
X1006915D02*
Y1782486D01*
X215315Y180000D02*
X254685D01*
X235000Y160315D02*
Y199685D01*
X71221Y119173D02*
X398779D01*
X71221D02*
Y240827D01*
X398779D01*
Y119173D02*
Y240827D01*
X207284Y1353346D02*
Y1737205D01*
X-51575D02*
X207284D01*
X-51575Y1353346D02*
Y1737205D01*
Y1353346D02*
X207284D01*
X2212008Y1393701D02*
X2433661D01*
Y1721260D01*
X2212008D02*
X2433661D01*
X2212008Y1393701D02*
Y1721260D01*
X2303150Y1557480D02*
X2342520D01*
X2322835Y1537795D02*
Y1577165D01*
%TF.MD5,193dbf91042401f2f768af05b654fa14*%
M02*
