%TF.GenerationSoftware,Altium Limited,Altium Designer,20.2.6 (244)*%
G04 Layer_Physical_Order=1*
G04 Layer_Color=255*
%FSLAX26Y26*%
%MOIN*%
%TF.SameCoordinates,5A7C1849-F1A5-4743-A48D-7E663CB7BB3B*%
%TF.FilePolarity,Positive*%
%TF.FileFunction,Copper,L1,Top,Signal*%
%TF.Part,Single*%
G01*
G75*
%TA.AperFunction,SMDPad,CuDef*%
%ADD10O,0.021654X0.064961*%
%ADD11O,0.064961X0.021654*%
%ADD12R,0.037402X0.055118*%
%ADD13R,0.053150X0.037402*%
%ADD14R,0.055118X0.037402*%
%ADD15R,0.037402X0.053150*%
%TA.AperFunction,ConnectorPad*%
%ADD16R,0.098000X0.015748*%
%ADD17R,0.074803X0.070866*%
%TA.AperFunction,SMDPad,CuDef*%
%ADD18R,0.039370X0.059055*%
%ADD19R,0.031752X0.051505*%
%ADD20R,0.049213X0.078740*%
%ADD21R,0.043307X0.047244*%
%TA.AperFunction,Conductor*%
%ADD22C,0.039370*%
%ADD23C,0.021654*%
%ADD24C,0.031496*%
%ADD25C,0.023622*%
%ADD26C,0.029528*%
%ADD27C,0.019685*%
%ADD28C,0.015748*%
%ADD29R,0.074803X0.062008*%
%TA.AperFunction,ComponentPad*%
%ADD30R,0.078740X0.078740*%
%ADD31C,0.078740*%
%ADD32R,0.078740X0.078740*%
%ADD33O,0.049213X0.041339*%
%ADD34O,0.074803X0.047244*%
%TA.AperFunction,ViaPad*%
%ADD35C,0.031496*%
%ADD36C,0.059055*%
G36*
X2573653Y1962407D02*
Y1600000D01*
X2573686Y1599746D01*
X2573657Y1599492D01*
X2574135Y1596339D01*
X2574550Y1593181D01*
X2574648Y1592944D01*
X2574687Y1592691D01*
X2575963Y1589770D01*
X2577182Y1586826D01*
X2577338Y1586623D01*
X2577441Y1586388D01*
X2579430Y1583898D01*
X2581370Y1581370D01*
X2581573Y1581214D01*
X2581733Y1581014D01*
X2677590Y1488787D01*
Y211213D01*
X2581733Y118987D01*
X2581573Y118786D01*
X2581370Y118630D01*
X2580916Y118039D01*
X2570914Y117373D01*
X2567455Y117890D01*
X2559346Y121363D01*
X2558479Y124223D01*
X2552629Y135166D01*
X2544758Y144758D01*
X2535166Y152629D01*
X2524222Y158479D01*
X2512348Y162081D01*
X2500000Y163297D01*
X2487651Y162081D01*
X2475777Y158479D01*
X2464834Y152629D01*
X2455242Y144758D01*
X2444757D01*
X2435166Y152629D01*
X2424222Y158479D01*
X2412348Y162081D01*
X2400000Y163297D01*
X2387651Y162081D01*
X2375777Y158479D01*
X2364834Y152629D01*
X2355242Y144758D01*
X2344757D01*
X2335166Y152629D01*
X2324222Y158479D01*
X2312348Y162081D01*
X2300000Y163297D01*
X2287651Y162081D01*
X2275777Y158479D01*
X2264834Y152629D01*
X2255242Y144758D01*
X2244757D01*
X2235166Y152629D01*
X2224222Y158479D01*
X2212348Y162081D01*
X2203064Y162995D01*
X2199739Y163603D01*
X2184764Y181159D01*
Y206221D01*
X2186122Y216535D01*
X2184764Y226850D01*
Y266732D01*
X2100118D01*
Y260216D01*
X1621850D01*
Y266732D01*
X1537205D01*
Y226850D01*
X1535847Y216535D01*
X1537205Y206221D01*
Y166339D01*
Y105096D01*
X1536703Y100000D01*
X1537919Y87651D01*
X1541521Y75777D01*
X1547370Y64834D01*
X1555242Y55242D01*
X1564834Y47371D01*
X1567337Y46032D01*
X1562407Y26347D01*
X1437593D01*
X1432662Y46032D01*
X1435166Y47371D01*
X1444757Y55242D01*
X1452629Y64834D01*
X1458478Y75777D01*
X1462081Y87651D01*
X1463297Y100000D01*
X1462081Y112349D01*
X1458478Y124223D01*
X1452629Y135166D01*
X1444757Y144758D01*
X1435166Y152629D01*
X1424223Y158479D01*
X1412348Y162081D01*
X1400000Y163297D01*
X1387651Y162081D01*
X1375777Y158479D01*
X1364834Y152629D01*
X1363366Y151424D01*
X1343680Y160735D01*
Y163297D01*
X1342192Y174602D01*
X1337828Y185137D01*
X1330887Y194184D01*
X1326504Y198567D01*
X1320887Y205887D01*
X1300887Y225887D01*
X1291840Y232829D01*
X1281305Y237192D01*
X1270000Y238681D01*
X939204D01*
X927899Y237192D01*
X917364Y232829D01*
X908317Y225887D01*
X885255Y202824D01*
X878313Y193778D01*
X873949Y183243D01*
X872461Y171938D01*
Y162992D01*
X753150D01*
Y143681D01*
X643093D01*
X485887Y300887D01*
X476840Y307829D01*
X466305Y312192D01*
X455000Y313681D01*
X103681D01*
Y1131319D01*
X756319D01*
Y1090697D01*
X737134Y1080976D01*
X726191Y1086825D01*
X714317Y1090427D01*
X701968Y1091643D01*
X689620Y1090427D01*
X677746Y1086825D01*
X666803Y1080976D01*
X657211Y1073104D01*
X646726D01*
X637134Y1080976D01*
X626191Y1086825D01*
X614317Y1090427D01*
X601968Y1091643D01*
X589620Y1090427D01*
X577746Y1086825D01*
X566803Y1080976D01*
X557211Y1073104D01*
X546726D01*
X537134Y1080976D01*
X526191Y1086825D01*
X514317Y1090427D01*
X501969Y1091643D01*
X489620Y1090427D01*
X477746Y1086825D01*
X466803Y1080976D01*
X457211Y1073104D01*
X446726D01*
X437134Y1080976D01*
X426191Y1086825D01*
X414317Y1090427D01*
X401969Y1091643D01*
X389620Y1090427D01*
X377746Y1086825D01*
X366803Y1080976D01*
X357211Y1073104D01*
X346726D01*
X337134Y1080976D01*
X326191Y1086825D01*
X314317Y1090427D01*
X301969Y1091643D01*
X289620Y1090427D01*
X277746Y1086825D01*
X266803Y1080976D01*
X257211Y1073104D01*
X249339Y1063512D01*
X243490Y1052569D01*
X239888Y1040695D01*
X238672Y1028347D01*
X239888Y1015998D01*
X243490Y1004124D01*
X249339Y993181D01*
X257211Y983589D01*
X266803Y975717D01*
X277746Y969868D01*
X289620Y966266D01*
X301969Y965050D01*
X314317Y966266D01*
X326191Y969868D01*
X337134Y975717D01*
X346726Y983589D01*
X357211D01*
X366803Y975717D01*
X377746Y969868D01*
X389620Y966266D01*
X401969Y965050D01*
X414317Y966266D01*
X426191Y969868D01*
X437134Y975717D01*
X446726Y983589D01*
X457211D01*
X466803Y975717D01*
X477746Y969868D01*
X489620Y966266D01*
X501969Y965050D01*
X514317Y966266D01*
X526191Y969868D01*
X537134Y975717D01*
X546726Y983589D01*
X557211D01*
X566803Y975717D01*
X577746Y969868D01*
X589620Y966266D01*
X601968Y965050D01*
X614317Y966266D01*
X626191Y969868D01*
X637134Y975717D01*
X646726Y983589D01*
X657211D01*
X666803Y975717D01*
X677746Y969868D01*
X689620Y966266D01*
X701968Y965050D01*
X714317Y966266D01*
X726191Y969868D01*
X737134Y975717D01*
X746726Y983589D01*
X757211D01*
X766803Y975717D01*
X777746Y969868D01*
X789620Y966266D01*
X801968Y965050D01*
X814317Y966266D01*
X826191Y969868D01*
X837134Y975717D01*
X846726Y983589D01*
X857211D01*
X866803Y975717D01*
X877746Y969868D01*
X889620Y966266D01*
X901968Y965050D01*
X914317Y966266D01*
X926191Y969868D01*
X937134Y975717D01*
X946726Y983589D01*
X957211D01*
X966803Y975717D01*
X977746Y969868D01*
X989620Y966266D01*
X1001968Y965050D01*
X1014317Y966266D01*
X1026191Y969868D01*
X1037134Y975717D01*
X1046726Y983589D01*
X1057211D01*
X1066803Y975717D01*
X1077746Y969868D01*
X1089620Y966266D01*
X1101968Y965050D01*
X1114317Y966266D01*
X1126191Y969868D01*
X1137134Y975717D01*
X1146726Y983589D01*
X1157211D01*
X1166803Y975717D01*
X1177746Y969868D01*
X1189620Y966266D01*
X1201968Y965050D01*
X1214317Y966266D01*
X1226191Y969868D01*
X1237134Y975717D01*
X1246726Y983589D01*
X1254598Y993181D01*
X1260447Y1004124D01*
X1264049Y1015998D01*
X1265265Y1028347D01*
X1264049Y1040695D01*
X1260447Y1052569D01*
X1254598Y1063512D01*
X1246726Y1073104D01*
X1237134Y1080976D01*
X1226191Y1086825D01*
X1214317Y1090427D01*
X1201968Y1091643D01*
X1189620Y1090427D01*
X1177746Y1086825D01*
X1166803Y1080976D01*
X1157211Y1073104D01*
X1146726D01*
X1137134Y1080976D01*
X1126191Y1086825D01*
X1114317Y1090427D01*
X1101968Y1091643D01*
X1089620Y1090427D01*
X1077746Y1086825D01*
X1066803Y1080976D01*
X1057211Y1073104D01*
X1046726D01*
X1037134Y1080976D01*
X1026191Y1086825D01*
X1014317Y1090427D01*
X1001968Y1091643D01*
X989620Y1090427D01*
X977746Y1086825D01*
X966803Y1080976D01*
X957211Y1073104D01*
X946726D01*
X937134Y1080976D01*
X926191Y1086825D01*
X914317Y1090427D01*
X901968Y1091643D01*
X889620Y1090427D01*
X877746Y1086825D01*
X866803Y1080976D01*
X863366Y1078155D01*
X843895Y1086282D01*
X843681Y1086494D01*
Y1151938D01*
X842192Y1163243D01*
X837829Y1173778D01*
X830887Y1182824D01*
X807824Y1205887D01*
X798778Y1212829D01*
X788243Y1217192D01*
X776938Y1218681D01*
X83062D01*
X71757Y1217192D01*
X61222Y1212829D01*
X52176Y1205887D01*
X46032Y1199744D01*
X26347Y1207898D01*
Y1318594D01*
X46032Y1333361D01*
X46850Y1333254D01*
X74409D01*
X86743Y1334877D01*
X98235Y1339638D01*
X108104Y1347211D01*
X115677Y1357080D01*
X120438Y1368572D01*
X121955Y1380097D01*
X122116Y1380906D01*
Y1421248D01*
X141801Y1427930D01*
X143214Y1426088D01*
X152466Y1418989D01*
X163241Y1414526D01*
X174803Y1413004D01*
X182677D01*
X194240Y1414526D01*
X205014Y1418989D01*
X214266Y1426088D01*
X221366Y1435340D01*
X225828Y1446115D01*
X226088Y1448082D01*
X238567Y1462598D01*
X258232Y1462550D01*
Y1340000D01*
X259315Y1331778D01*
X262488Y1324116D01*
X267537Y1317537D01*
X288639Y1296434D01*
X295219Y1291386D01*
X302880Y1288212D01*
X311102Y1287130D01*
X370079D01*
Y1255906D01*
X466535D01*
Y1275318D01*
X468985Y1277479D01*
X486220Y1283947D01*
X489971Y1281069D01*
X500506Y1276705D01*
X511811Y1275217D01*
X517717D01*
Y1255906D01*
X614173D01*
Y1372734D01*
X718525D01*
X726382Y1369480D01*
X855431Y1240431D01*
X862627Y1234909D01*
X871007Y1231438D01*
X880000Y1230254D01*
X1420000D01*
X1428993Y1231438D01*
X1437373Y1234909D01*
X1441632Y1238177D01*
X1452061Y1235469D01*
X1461317Y1229340D01*
Y1193937D01*
X1462501Y1184944D01*
X1465972Y1176564D01*
X1471494Y1169368D01*
X1495366Y1145495D01*
X1500431Y1124569D01*
X1475431Y1099569D01*
X1469909Y1092373D01*
X1466438Y1083993D01*
X1465998Y1080651D01*
X1465026Y1079931D01*
X1446726Y1073104D01*
X1437134Y1080976D01*
X1426191Y1086825D01*
X1414317Y1090427D01*
X1401968Y1091643D01*
X1389620Y1090427D01*
X1377746Y1086825D01*
X1366803Y1080976D01*
X1357211Y1073104D01*
X1349339Y1063512D01*
X1343490Y1052569D01*
X1339888Y1040695D01*
X1338672Y1028347D01*
X1339888Y1015998D01*
X1343490Y1004124D01*
X1349339Y993181D01*
X1357211Y983589D01*
X1366803Y975717D01*
X1377746Y969868D01*
X1389620Y966266D01*
X1401968Y965050D01*
X1414317Y966266D01*
X1426191Y969868D01*
X1437134Y975717D01*
X1437619Y976114D01*
X1457303Y966804D01*
Y636664D01*
X1453574Y631804D01*
X1448219Y618875D01*
X1446392Y605000D01*
X1448219Y591125D01*
X1451433Y583366D01*
X1444731Y568809D01*
X1439899Y563681D01*
X525031D01*
X513726Y562192D01*
X503191Y557829D01*
X494144Y550887D01*
X471082Y527824D01*
X464140Y518778D01*
X459776Y508243D01*
X458288Y496938D01*
Y489081D01*
X438603Y479771D01*
X437134Y480976D01*
X426191Y486825D01*
X414317Y490427D01*
X401969Y491643D01*
X389620Y490427D01*
X377746Y486825D01*
X366803Y480976D01*
X357211Y473104D01*
X346726D01*
X337134Y480976D01*
X326191Y486825D01*
X314317Y490427D01*
X301969Y491643D01*
X289620Y490427D01*
X277746Y486825D01*
X266803Y480976D01*
X257211Y473104D01*
X249339Y463512D01*
X243490Y452569D01*
X239888Y440695D01*
X238672Y428346D01*
X239888Y415998D01*
X243490Y404124D01*
X249339Y393181D01*
X257211Y383589D01*
X266803Y375717D01*
X277746Y369868D01*
X289620Y366266D01*
X301969Y365050D01*
X314317Y366266D01*
X326191Y369868D01*
X337134Y375717D01*
X346726Y383589D01*
X357211D01*
X366803Y375717D01*
X377746Y369868D01*
X389620Y366266D01*
X401969Y365050D01*
X414317Y366266D01*
X426191Y369868D01*
X437134Y375717D01*
X446726Y383589D01*
X457211D01*
X466803Y375717D01*
X477746Y369868D01*
X489620Y366266D01*
X501969Y365050D01*
X514317Y366266D01*
X526191Y369868D01*
X537134Y375717D01*
X546726Y383589D01*
X554598Y393181D01*
X560447Y404124D01*
X564049Y415998D01*
X565265Y428346D01*
X564049Y440695D01*
X560447Y452569D01*
X558274Y456634D01*
X566354Y473580D01*
X569553Y476319D01*
X634384D01*
X637583Y473580D01*
X645663Y456634D01*
X643490Y452569D01*
X639888Y440695D01*
X638672Y428346D01*
X639888Y415998D01*
X643490Y404124D01*
X649339Y393181D01*
X657211Y383589D01*
X666803Y375717D01*
X677746Y369868D01*
X689620Y366266D01*
X701968Y365050D01*
X714317Y366266D01*
X726191Y369868D01*
X737134Y375717D01*
X745050Y382213D01*
X752956Y379482D01*
X763251Y372695D01*
Y357298D01*
X763251Y357297D01*
X763911Y352287D01*
X764571Y347276D01*
X768439Y337938D01*
X774591Y329920D01*
X791888Y312623D01*
X791888Y312623D01*
X799907Y306470D01*
X809245Y302602D01*
X814255Y301943D01*
X819265Y301283D01*
X819266Y301283D01*
X1784671D01*
X1784672Y301283D01*
X1789682Y301943D01*
X1794692Y302602D01*
X1804030Y306470D01*
X1812049Y312623D01*
X1829345Y329920D01*
X1829346Y329920D01*
X1835498Y337938D01*
X1839366Y347276D01*
X1840026Y352286D01*
X1840686Y357297D01*
X1840686Y357298D01*
Y372695D01*
X1850981Y379482D01*
X1858887Y382213D01*
X1866803Y375717D01*
X1877746Y369868D01*
X1889620Y366266D01*
X1901968Y365050D01*
X1914317Y366266D01*
X1926191Y369868D01*
X1937134Y375717D01*
X1946726Y383589D01*
X1957211D01*
X1966803Y375717D01*
X1977746Y369868D01*
X1989620Y366266D01*
X2001968Y365050D01*
X2014317Y366266D01*
X2026191Y369868D01*
X2037134Y375717D01*
X2046726Y383589D01*
X2054598Y393181D01*
X2060447Y404124D01*
X2064049Y415998D01*
X2065265Y428346D01*
X2064049Y440695D01*
X2060447Y452569D01*
X2054598Y463512D01*
X2046726Y473104D01*
X2048809Y492035D01*
X2073093Y516319D01*
X2415000D01*
X2426305Y517808D01*
X2436840Y522171D01*
X2445887Y529113D01*
X2505887Y589113D01*
X2512829Y598160D01*
X2517192Y608695D01*
X2518681Y620000D01*
Y1529521D01*
X2517192Y1540827D01*
X2512829Y1551362D01*
X2505887Y1560408D01*
X2482824Y1583471D01*
X2473778Y1590412D01*
X2463243Y1594776D01*
X2451938Y1596264D01*
X2428568D01*
X2421968Y1606161D01*
X2419080Y1614535D01*
X2425464Y1622314D01*
X2431313Y1633258D01*
X2434915Y1645132D01*
X2436131Y1657480D01*
X2434915Y1669829D01*
X2431313Y1681703D01*
X2425464Y1692646D01*
X2417592Y1702238D01*
X2416515Y1703122D01*
Y1746938D01*
X2415027Y1758243D01*
X2410663Y1768778D01*
X2403722Y1777824D01*
X2380659Y1800887D01*
X2371612Y1807829D01*
X2361077Y1812192D01*
X2349772Y1813681D01*
X2223062D01*
X2223062Y1813681D01*
X2068338D01*
X2057033Y1812192D01*
X2046498Y1807829D01*
X2037451Y1800887D01*
X2014389Y1777824D01*
X2012675Y1775591D01*
X1887008D01*
Y1767403D01*
X1883977Y1763153D01*
X1867323Y1752002D01*
X1865000Y1752308D01*
X1854722Y1750955D01*
X1853438Y1750423D01*
X1835495Y1760352D01*
X1833753Y1762764D01*
Y1946616D01*
X1835166Y1947371D01*
X1844757Y1955242D01*
X1855242D01*
X1864834Y1947371D01*
X1875777Y1941521D01*
X1887651Y1937919D01*
X1900000Y1936703D01*
X1912348Y1937919D01*
X1924223Y1941521D01*
X1935166Y1947371D01*
X1944757Y1955242D01*
X1955242D01*
X1964834Y1947371D01*
X1975777Y1941521D01*
X1987651Y1937919D01*
X2000000Y1936703D01*
X2012348Y1937919D01*
X2024223Y1941521D01*
X2035166Y1947371D01*
X2044757Y1955242D01*
X2055242D01*
X2064834Y1947371D01*
X2075777Y1941521D01*
X2087651Y1937919D01*
X2100000Y1936703D01*
X2112348Y1937919D01*
X2124222Y1941521D01*
X2135166Y1947371D01*
X2144757Y1955242D01*
X2155242D01*
X2164834Y1947371D01*
X2175777Y1941521D01*
X2187651Y1937919D01*
X2200000Y1936703D01*
X2212348Y1937919D01*
X2224222Y1941521D01*
X2235166Y1947371D01*
X2244757Y1955242D01*
X2255242D01*
X2264834Y1947371D01*
X2275777Y1941521D01*
X2287651Y1937919D01*
X2300000Y1936703D01*
X2312348Y1937919D01*
X2324222Y1941521D01*
X2335166Y1947371D01*
X2344757Y1955242D01*
X2355242D01*
X2364834Y1947371D01*
X2375777Y1941521D01*
X2387651Y1937919D01*
X2400000Y1936703D01*
X2412348Y1937919D01*
X2424222Y1941521D01*
X2435166Y1947371D01*
X2444757Y1955242D01*
X2455242D01*
X2464834Y1947371D01*
X2475777Y1941521D01*
X2487651Y1937919D01*
X2500000Y1936703D01*
X2512348Y1937919D01*
X2524222Y1941521D01*
X2535166Y1947371D01*
X2544758Y1955242D01*
X2552629Y1964834D01*
X2553968Y1967338D01*
X2573653Y1962407D01*
D02*
G37*
G36*
X1732498Y2045700D02*
X1742771Y2026562D01*
X1741521Y2024223D01*
X1737919Y2012349D01*
X1736703Y2000000D01*
X1737919Y1987651D01*
X1741521Y1975777D01*
X1747370Y1964834D01*
X1755242Y1955242D01*
X1764834Y1947371D01*
X1766246Y1946616D01*
Y1708981D01*
X1724877Y1667612D01*
X1638780D01*
X1637893Y1674347D01*
X1634422Y1682727D01*
X1628900Y1689924D01*
X1621704Y1695445D01*
X1617423Y1697218D01*
Y1922765D01*
X1637108Y1936988D01*
X1640000Y1936703D01*
X1652348Y1937919D01*
X1664223Y1941521D01*
X1675166Y1947371D01*
X1684757Y1955242D01*
X1692629Y1964834D01*
X1698478Y1975777D01*
X1702081Y1987651D01*
X1703297Y2000000D01*
X1702081Y2012349D01*
X1698478Y2024223D01*
X1697228Y2026562D01*
X1707502Y2045700D01*
X1708273Y2046247D01*
X1731727D01*
X1732498Y2045700D01*
D02*
G37*
G36*
X296669Y2059403D02*
X295070Y2057804D01*
X289706Y2050814D01*
X286334Y2042673D01*
X285184Y2033937D01*
Y2027721D01*
X212437D01*
Y2012100D01*
X185039D01*
Y2025591D01*
X94488D01*
Y1931102D01*
X185039D01*
Y1944593D01*
X212437D01*
Y1928972D01*
X358429D01*
Y2025695D01*
X378981Y2046247D01*
X671727D01*
X672498Y2045700D01*
X682771Y2026562D01*
X681521Y2024223D01*
X677919Y2012349D01*
X676703Y2000000D01*
X677919Y1987651D01*
X681521Y1975777D01*
X687370Y1964834D01*
X695242Y1955242D01*
X704834Y1947371D01*
X715777Y1941521D01*
X727651Y1937919D01*
X740000Y1936703D01*
X752348Y1937919D01*
X764222Y1941521D01*
X775166Y1947371D01*
X784757Y1955242D01*
X795242D01*
X804834Y1947371D01*
X815777Y1941521D01*
X827651Y1937919D01*
X840000Y1936703D01*
X852348Y1937919D01*
X864222Y1941521D01*
X875166Y1947371D01*
X884757Y1955242D01*
X895242D01*
X904834Y1947371D01*
X915777Y1941521D01*
X927651Y1937919D01*
X940000Y1936703D01*
X952348Y1937919D01*
X964222Y1941521D01*
X975166Y1947371D01*
X984757Y1955242D01*
X995242D01*
X1004834Y1947371D01*
X1015777Y1941521D01*
X1027651Y1937919D01*
X1040000Y1936703D01*
X1052348Y1937919D01*
X1064223Y1941521D01*
X1075166Y1947371D01*
X1084757Y1955242D01*
X1095242D01*
X1104834Y1947371D01*
X1115777Y1941521D01*
X1127651Y1937919D01*
X1140000Y1936703D01*
X1152348Y1937919D01*
X1164223Y1941521D01*
X1175166Y1947371D01*
X1184757Y1955242D01*
X1195242D01*
X1204834Y1947371D01*
X1215777Y1941521D01*
X1227651Y1937919D01*
X1240000Y1936703D01*
X1252348Y1937919D01*
X1264223Y1941521D01*
X1275166Y1947371D01*
X1284757Y1955242D01*
X1295242D01*
X1304834Y1947371D01*
X1315777Y1941521D01*
X1327651Y1937919D01*
X1340000Y1936703D01*
X1352348Y1937919D01*
X1364223Y1941521D01*
X1375166Y1947371D01*
X1384757Y1955242D01*
X1395242D01*
X1404834Y1947371D01*
X1415777Y1941521D01*
X1427651Y1937919D01*
X1440000Y1936703D01*
X1452348Y1937919D01*
X1464223Y1941521D01*
X1475166Y1947371D01*
X1484757Y1955242D01*
X1495242D01*
X1504834Y1947371D01*
X1515777Y1941521D01*
X1527651Y1937919D01*
X1538570Y1936844D01*
X1547931Y1927483D01*
Y1865128D01*
X1545958Y1861780D01*
X1528246Y1849265D01*
X1527559Y1849355D01*
X1517282Y1848002D01*
X1507704Y1844035D01*
X1499480Y1837725D01*
X1493169Y1829501D01*
X1489203Y1819923D01*
X1487849Y1809646D01*
X1489203Y1799368D01*
X1490595Y1796007D01*
X1488972Y1786652D01*
X1473560Y1775688D01*
X1464567Y1776872D01*
X1455574Y1775688D01*
X1448819Y1772890D01*
X1442064Y1775688D01*
X1433071Y1776872D01*
X1424078Y1775688D01*
X1417323Y1772890D01*
X1410568Y1775688D01*
X1401575Y1776872D01*
X1392582Y1775688D01*
X1385827Y1772890D01*
X1379072Y1775688D01*
X1370079Y1776872D01*
X1362319Y1775851D01*
X1360541Y1776029D01*
X1342825Y1787104D01*
Y1801162D01*
X1341608Y1810412D01*
X1338037Y1819032D01*
X1332358Y1826434D01*
X1318520Y1840271D01*
X1311118Y1845951D01*
X1302499Y1849521D01*
X1293249Y1850739D01*
X775000D01*
X765750Y1849521D01*
X757131Y1845951D01*
X749729Y1840271D01*
X749729Y1840271D01*
X712249Y1802791D01*
X706569Y1795389D01*
X702999Y1786770D01*
X701781Y1777520D01*
Y1755338D01*
X699163Y1749018D01*
X697810Y1738740D01*
X699163Y1728463D01*
X703130Y1718885D01*
X709441Y1710661D01*
X717665Y1704351D01*
X727242Y1700384D01*
X737520Y1699031D01*
X747797Y1700384D01*
X757375Y1704351D01*
X765599Y1710661D01*
X771909Y1718885D01*
X775876Y1728463D01*
X777229Y1738740D01*
X775876Y1749018D01*
X773258Y1755338D01*
Y1762716D01*
X789803Y1779261D01*
X1271348D01*
Y1720473D01*
X1271438Y1719785D01*
X1258749Y1700100D01*
X1230315D01*
X1221322Y1698917D01*
X1212942Y1695445D01*
X1205746Y1689924D01*
X1200224Y1682727D01*
X1196753Y1674347D01*
X1195569Y1665354D01*
X1196753Y1656361D01*
X1199551Y1649606D01*
X1196753Y1642851D01*
X1195569Y1633858D01*
X1196753Y1624865D01*
X1199551Y1618110D01*
X1196753Y1611355D01*
X1195569Y1602362D01*
X1196753Y1593369D01*
X1200224Y1584989D01*
X1205746Y1577793D01*
Y1563939D01*
X1200224Y1556743D01*
X1196753Y1548363D01*
X1195569Y1539370D01*
X1196696Y1530809D01*
X1196735Y1530339D01*
X1196536Y1529899D01*
X1180173Y1518966D01*
X1137108Y1562030D01*
Y1598327D01*
X1137528Y1598552D01*
X1147120Y1606424D01*
X1154992Y1616015D01*
X1160841Y1626958D01*
X1164443Y1638833D01*
X1165659Y1651181D01*
X1164443Y1663530D01*
X1160841Y1675404D01*
X1154992Y1686347D01*
X1147120Y1695939D01*
X1137528Y1703811D01*
X1126585Y1709660D01*
X1114711Y1713262D01*
X1102362Y1714478D01*
X1090014Y1713262D01*
X1084007Y1711440D01*
X1076283Y1714639D01*
X1067033Y1715857D01*
X996063D01*
Y1722441D01*
X893701D01*
Y1637795D01*
Y1564961D01*
X901201D01*
Y1545275D01*
X893701D01*
Y1460630D01*
Y1421157D01*
X875514Y1413624D01*
X679923Y1609215D01*
X672727Y1614737D01*
X664347Y1618208D01*
X655354Y1619392D01*
X565122D01*
Y1634020D01*
X498126D01*
Y1712760D01*
X492126D01*
Y1780512D01*
X504921D01*
Y1827162D01*
X505295Y1830000D01*
X504921Y1832838D01*
Y1880906D01*
X420276D01*
Y1873681D01*
X408062D01*
X396757Y1872192D01*
X386222Y1867829D01*
X378114Y1861607D01*
X370587Y1862825D01*
X358429Y1867861D01*
Y1870240D01*
X212437D01*
Y1854619D01*
X185039D01*
Y1868110D01*
X94488D01*
Y1773622D01*
X185039D01*
Y1787113D01*
X212437D01*
Y1771492D01*
X284191D01*
Y1751278D01*
X280580Y1742561D01*
X279227Y1732284D01*
X280580Y1722006D01*
X284547Y1712429D01*
X290858Y1704205D01*
X299082Y1697894D01*
X308659Y1693927D01*
X318937Y1692574D01*
X325874Y1693487D01*
X342697Y1681008D01*
X343986Y1663912D01*
X308298Y1628225D01*
X231428D01*
X227351Y1632874D01*
X225828Y1644436D01*
X221366Y1655211D01*
X214266Y1664463D01*
X205014Y1671562D01*
X194240Y1676025D01*
X182677Y1677547D01*
X174803D01*
X163241Y1676025D01*
X152466Y1671562D01*
X143214Y1664463D01*
X141802Y1662622D01*
X122117Y1669304D01*
Y1709645D01*
X121952Y1710472D01*
X120438Y1721979D01*
X115677Y1733471D01*
X108104Y1743340D01*
X98235Y1750913D01*
X86743Y1755674D01*
X74409Y1757297D01*
X46850D01*
X46032Y1757190D01*
X26347Y1771957D01*
Y2077590D01*
X289135D01*
X296669Y2059403D01*
D02*
G37*
G36*
X2229130Y1723648D02*
X2233434Y1706634D01*
X2228077Y1702238D01*
X2220205Y1692646D01*
X2214356Y1681703D01*
X2210754Y1669829D01*
X2209538Y1657480D01*
X2210754Y1645132D01*
X2214356Y1633258D01*
X2220205Y1622314D01*
X2228077Y1612723D01*
Y1602238D01*
X2220205Y1592646D01*
X2214356Y1581703D01*
X2210754Y1569829D01*
X2209538Y1557480D01*
X2210754Y1545132D01*
X2214356Y1533258D01*
X2220205Y1522314D01*
X2228077Y1512723D01*
X2237669Y1504851D01*
X2248612Y1499002D01*
X2260486Y1495400D01*
X2272835Y1494183D01*
X2285183Y1495400D01*
X2290157Y1496909D01*
X2306101Y1488047D01*
X2309843Y1483515D01*
Y1394488D01*
X2331365D01*
Y1389954D01*
X2332853Y1378649D01*
X2337217Y1368114D01*
X2344159Y1359068D01*
X2351319Y1351907D01*
Y683681D01*
X1950000D01*
X1938695Y682192D01*
X1928160Y677829D01*
X1919113Y670887D01*
X1871082Y622855D01*
X1865334Y615365D01*
X1863149Y615332D01*
X1845649Y628127D01*
Y668032D01*
X1844161Y679337D01*
X1839797Y689872D01*
X1832855Y698918D01*
X1745649Y786125D01*
Y967612D01*
X1765334Y976922D01*
X1766803Y975717D01*
X1777746Y969868D01*
X1789620Y966266D01*
X1801968Y965050D01*
X1814317Y966266D01*
X1826191Y969868D01*
X1837134Y975717D01*
X1846726Y983589D01*
X1857211D01*
X1866803Y975717D01*
X1877746Y969868D01*
X1889620Y966266D01*
X1901968Y965050D01*
X1914317Y966266D01*
X1926191Y969868D01*
X1937134Y975717D01*
X1946726Y983589D01*
X1957211D01*
X1966803Y975717D01*
X1977746Y969868D01*
X1989620Y966266D01*
X2001968Y965050D01*
X2014317Y966266D01*
X2026191Y969868D01*
X2037134Y975717D01*
X2046726Y983589D01*
X2057211D01*
X2066803Y975717D01*
X2077746Y969868D01*
X2089620Y966266D01*
X2101968Y965050D01*
X2114317Y966266D01*
X2119291Y967775D01*
X2138977Y965354D01*
Y965354D01*
X2264961D01*
Y1091339D01*
X2138977D01*
X2138976Y1091339D01*
X2119291Y1088918D01*
X2114317Y1090427D01*
X2101968Y1091643D01*
X2089620Y1090427D01*
X2077746Y1086825D01*
X2066803Y1080976D01*
X2057211Y1073104D01*
X2046726D01*
X2037134Y1080976D01*
X2026191Y1086825D01*
X2014317Y1090427D01*
X2001968Y1091643D01*
X1989620Y1090427D01*
X1977746Y1086825D01*
X1966803Y1080976D01*
X1957211Y1073104D01*
X1946726D01*
X1937134Y1080976D01*
X1926191Y1086825D01*
X1914317Y1090427D01*
X1901968Y1091643D01*
X1889620Y1090427D01*
X1877746Y1086825D01*
X1867830Y1081525D01*
X1864048Y1082766D01*
X1861826Y1107687D01*
X1864569Y1110431D01*
X1870091Y1117627D01*
X1873562Y1126007D01*
X1874746Y1135000D01*
Y1275000D01*
X1873562Y1283993D01*
X1870091Y1292373D01*
X1864569Y1299569D01*
X1694687Y1469451D01*
X1689798Y1473202D01*
X1675000Y1485000D01*
Y1510827D01*
X1747165D01*
Y1513440D01*
X1771653D01*
X1781931Y1514793D01*
X1791508Y1518760D01*
X1799733Y1525071D01*
X1806043Y1533295D01*
X1810010Y1542872D01*
X1811363Y1553150D01*
X1810010Y1563427D01*
X1806043Y1573004D01*
X1799733Y1581229D01*
X1791508Y1587539D01*
X1781931Y1591506D01*
X1772577Y1592738D01*
X1769137Y1597689D01*
X1767388Y1601044D01*
X1765279Y1612544D01*
X1811562Y1658827D01*
X1831247Y1650673D01*
Y1420000D01*
X1832397Y1411264D01*
X1835769Y1403123D01*
X1841133Y1396133D01*
X1863495Y1373771D01*
X1870486Y1368407D01*
X1878626Y1365035D01*
X1887008Y1363931D01*
Y1334646D01*
X2012992D01*
X2012992Y1334646D01*
X2032677Y1337066D01*
X2037651Y1335557D01*
X2050000Y1334341D01*
X2062349Y1335557D01*
X2074223Y1339159D01*
X2085166Y1345008D01*
X2094758Y1352880D01*
X2102629Y1362472D01*
X2108479Y1373415D01*
X2112081Y1385289D01*
X2113297Y1397638D01*
X2112081Y1409986D01*
X2108479Y1421861D01*
X2102629Y1432804D01*
X2094758Y1442396D01*
X2085166Y1450267D01*
X2074223Y1456117D01*
X2062349Y1459718D01*
X2050000Y1460935D01*
X2037651Y1459718D01*
X2032677Y1458210D01*
X2012992Y1460630D01*
Y1460630D01*
X1898753D01*
Y1649606D01*
X1930254D01*
Y1604492D01*
X1927004D01*
Y1505744D01*
X2006000D01*
Y1604492D01*
X1999746D01*
Y1635408D01*
X2012992Y1649606D01*
X2032677Y1652027D01*
X2037651Y1650518D01*
X2050000Y1649302D01*
X2062349Y1650518D01*
X2074223Y1654120D01*
X2085166Y1659969D01*
X2094758Y1667841D01*
X2102629Y1677432D01*
X2108479Y1688376D01*
X2112081Y1700250D01*
X2113297Y1712598D01*
X2131726Y1726319D01*
X2223062D01*
X2223063Y1726319D01*
X2227445D01*
X2229130Y1723648D01*
D02*
G37*
G36*
X1040281Y1638833D02*
X1043883Y1626958D01*
X1049733Y1616015D01*
X1057604Y1606424D01*
X1067196Y1598552D01*
X1067616Y1598327D01*
Y1547638D01*
X1068800Y1538645D01*
X1072271Y1530265D01*
X1067433Y1512551D01*
X1063979Y1509044D01*
X1057604Y1503813D01*
X1049733Y1494221D01*
X1043883Y1483278D01*
X1040281Y1471404D01*
X1039735Y1465857D01*
X996063D01*
Y1545275D01*
X988563D01*
Y1564961D01*
X996063D01*
Y1644379D01*
X1039735D01*
X1040281Y1638833D01*
D02*
G37*
G36*
X1527461Y1516867D02*
X1526278Y1507874D01*
X1527461Y1498881D01*
X1530933Y1490501D01*
X1536455Y1483305D01*
Y1469451D01*
X1530933Y1462255D01*
X1527461Y1453875D01*
X1509421Y1448795D01*
X1494658Y1452806D01*
X1489136Y1460002D01*
X1483000Y1466138D01*
X1479390Y1474855D01*
X1473079Y1483079D01*
X1464855Y1489390D01*
X1455278Y1493357D01*
X1445000Y1494710D01*
X1434722Y1493357D01*
X1425145Y1489390D01*
X1416921Y1483079D01*
X1410610Y1474855D01*
X1406643Y1465278D01*
X1405290Y1455000D01*
X1392582Y1444979D01*
X1385827Y1442181D01*
X1379072Y1444979D01*
X1370079Y1446163D01*
X1361086Y1444979D01*
X1354331Y1442181D01*
X1347576Y1444979D01*
X1338583Y1446163D01*
X1329590Y1444979D01*
X1326418Y1443666D01*
X1312351Y1450146D01*
X1305870Y1464213D01*
X1307184Y1467385D01*
X1308368Y1476378D01*
X1307241Y1484939D01*
X1307202Y1485402D01*
X1317837Y1503400D01*
X1319628Y1504624D01*
X1329370D01*
X1338363Y1505808D01*
X1346743Y1509279D01*
X1353939Y1514801D01*
X1369569Y1530431D01*
X1373935Y1536120D01*
X1517038D01*
X1527461Y1516867D01*
D02*
G37*
G36*
X725411Y1465451D02*
X725838Y1460873D01*
X720131Y1442892D01*
X718525Y1442226D01*
X614173D01*
Y1549900D01*
X640962D01*
X725411Y1465451D01*
D02*
G37*
G36*
X98032Y1707645D02*
X98032Y1627953D01*
X93323D01*
Y1564961D01*
Y1539370D01*
Y1513780D01*
Y1488189D01*
X215000D01*
Y1472130D01*
X207824Y1463784D01*
X206716Y1461820D01*
X205229Y1460124D01*
X204429Y1457767D01*
X203206Y1455599D01*
X203005Y1453951D01*
X200328Y1447487D01*
X197089Y1443266D01*
X192868Y1440027D01*
X187952Y1437991D01*
X181098Y1437088D01*
X176382D01*
X169528Y1437991D01*
X164613Y1440027D01*
X160089Y1443498D01*
X159909Y1443811D01*
X156794Y1446200D01*
X153843Y1448789D01*
X153086Y1449045D01*
X152453Y1449531D01*
X148661Y1450548D01*
X144944Y1451809D01*
X144148Y1451757D01*
X143376Y1451964D01*
X139483Y1451451D01*
X135567Y1451195D01*
X134851Y1450841D01*
X134059Y1450737D01*
X114374Y1444055D01*
X113682Y1443656D01*
X112899Y1443500D01*
X109635Y1441319D01*
X106235Y1439356D01*
X105749Y1438722D01*
X105085Y1438279D01*
X102904Y1435015D01*
X100515Y1431901D01*
X100308Y1431129D01*
X99864Y1430465D01*
X99098Y1426615D01*
X98082Y1422823D01*
X98187Y1422031D01*
X98031Y1421248D01*
Y1382898D01*
X97769Y1380906D01*
X26347D01*
Y1709645D01*
X97769D01*
X98032Y1707645D01*
D02*
G37*
G36*
X1272341Y1368110D02*
X1265005Y1359746D01*
X935387D01*
X928915Y1368110D01*
X938574Y1387795D01*
X996063D01*
Y1394379D01*
X1067033D01*
X1076283Y1395597D01*
X1084007Y1398797D01*
X1090014Y1396975D01*
X1102362Y1395758D01*
X1114711Y1396975D01*
X1126585Y1400576D01*
X1137528Y1406426D01*
X1142049Y1410136D01*
X1272341D01*
Y1368110D01*
D02*
G37*
G36*
X341453Y1465319D02*
X349225Y1464295D01*
X370079D01*
Y1433071D01*
X385306D01*
X391987Y1422102D01*
X394014Y1413386D01*
X390795Y1409191D01*
X387622Y1401529D01*
X386539Y1393307D01*
Y1381890D01*
X370079D01*
Y1350665D01*
X324261D01*
X321768Y1353159D01*
Y1452824D01*
X323773Y1455549D01*
X340967Y1465357D01*
X341453Y1465319D01*
D02*
G37*
G36*
X1805254Y1260608D02*
Y1149392D01*
X1790608Y1134746D01*
X1758054D01*
X1741678Y1150689D01*
X1740325Y1160967D01*
X1736358Y1170544D01*
X1730047Y1178768D01*
X1721823Y1185079D01*
X1712246Y1189046D01*
X1701968Y1190399D01*
X1691691Y1189046D01*
X1682974Y1185435D01*
X1626495D01*
X1612210Y1205000D01*
X1610857Y1215278D01*
X1606890Y1224855D01*
X1600579Y1233079D01*
X1592355Y1239390D01*
X1582778Y1243357D01*
X1572500Y1244710D01*
X1562305Y1263003D01*
Y1389764D01*
Y1410136D01*
X1655726D01*
X1805254Y1260608D01*
D02*
G37*
G36*
X2009861Y576634D02*
X1971082Y537855D01*
X1965334Y530365D01*
X1963149Y530332D01*
X1945649Y543127D01*
Y573875D01*
X1968093Y596319D01*
X2001707D01*
X2009861Y576634D01*
D02*
G37*
G36*
X1665334Y744635D02*
X1671082Y737145D01*
X1758288Y649938D01*
Y489081D01*
X1738603Y479771D01*
X1737134Y480976D01*
X1726191Y486825D01*
X1714317Y490427D01*
X1701968Y491643D01*
X1689620Y490427D01*
X1677746Y486825D01*
X1666803Y480976D01*
X1659727Y475170D01*
X1645489Y488950D01*
X1649910Y494712D01*
X1655266Y507641D01*
X1657092Y521516D01*
X1655266Y535391D01*
X1649910Y548320D01*
X1645649Y553873D01*
Y731873D01*
X1663149Y744668D01*
X1665334Y744635D01*
D02*
G37*
G36*
X1570000Y235000D02*
X1730000D01*
Y85000D01*
X1725000Y80000D01*
X1720000Y85000D01*
X1565000D01*
Y95000D01*
Y233467D01*
X1569619Y235381D01*
X1570000Y235000D01*
D02*
G37*
G36*
X1965845Y153170D02*
X1964834Y152629D01*
X1955242Y144758D01*
X1947370Y135166D01*
X1941521Y124223D01*
X1937919Y112349D01*
X1936703Y100000D01*
X1937919Y87651D01*
X1941521Y75777D01*
X1947370Y64834D01*
X1955242Y55242D01*
X1964834Y47371D01*
X1967337Y46032D01*
X1962407Y26347D01*
X1837593D01*
X1832662Y46032D01*
X1835166Y47371D01*
X1844757Y55242D01*
X1852629Y64834D01*
X1858478Y75777D01*
X1862081Y87651D01*
X1863297Y100000D01*
X1862081Y112349D01*
X1858478Y124223D01*
X1852629Y135166D01*
X1844757Y144758D01*
X1835166Y152629D01*
X1834155Y153170D01*
X1839086Y172855D01*
X1960914D01*
X1965845Y153170D01*
D02*
G37*
G36*
X1041326Y143163D02*
X1045483Y131634D01*
X1041521Y124223D01*
X1037919Y112349D01*
X1036703Y100000D01*
X1037919Y87651D01*
X1041521Y75777D01*
X1047370Y64834D01*
X1055242Y55242D01*
X1064834Y47371D01*
X1067337Y46032D01*
X1062407Y26347D01*
X953735D01*
X948804Y46032D01*
X951308Y47371D01*
X960899Y55242D01*
X968771Y64834D01*
X974620Y75777D01*
X978222Y87651D01*
X979439Y100000D01*
X978222Y112349D01*
X974620Y124223D01*
X970659Y131634D01*
X974815Y143163D01*
X980980Y151319D01*
X1035162D01*
X1041326Y143163D01*
D02*
G37*
G36*
X594113Y69113D02*
X603160Y62171D01*
X613695Y57808D01*
X625000Y56319D01*
X753150D01*
Y37008D01*
X737880Y26347D01*
X408740D01*
Y49686D01*
X410098Y60000D01*
Y148583D01*
X408610Y159888D01*
X404246Y170423D01*
X398138Y178383D01*
X398297Y180000D01*
X397081Y192349D01*
X393479Y204223D01*
X392190Y206634D01*
X402371Y225691D01*
X403251Y226319D01*
X436907D01*
X594113Y69113D01*
D02*
G37*
G36*
X52176Y239113D02*
X61222Y232171D01*
X71757Y227808D01*
X72008Y227775D01*
Y176016D01*
X65754Y167866D01*
X61390Y157331D01*
X59902Y146026D01*
Y60000D01*
X61260Y49686D01*
Y26347D01*
X26347D01*
Y237102D01*
X46032Y245256D01*
X52176Y239113D01*
D02*
G37*
%LPC*%
G36*
X2201968Y491643D02*
X2189620Y490427D01*
X2177746Y486825D01*
X2166803Y480976D01*
X2157211Y473104D01*
X2149339Y463512D01*
X2143490Y452569D01*
X2139888Y440695D01*
X2138672Y428346D01*
X2139888Y415998D01*
X2143490Y404124D01*
X2149339Y393181D01*
X2157211Y383589D01*
X2166803Y375717D01*
X2177746Y369868D01*
X2189620Y366266D01*
X2201968Y365050D01*
X2214317Y366266D01*
X2226191Y369868D01*
X2237134Y375717D01*
X2246726Y383589D01*
X2254598Y393181D01*
X2260447Y404124D01*
X2264049Y415998D01*
X2265265Y428346D01*
X2264049Y440695D01*
X2260447Y452569D01*
X2254598Y463512D01*
X2246726Y473104D01*
X2237134Y480976D01*
X2226191Y486825D01*
X2214317Y490427D01*
X2201968Y491643D01*
D02*
G37*
%LPD*%
D10*
X1307087Y1720473D02*
D03*
X1338583D02*
D03*
X1370079D02*
D03*
X1401575D02*
D03*
X1433071D02*
D03*
X1464567D02*
D03*
X1496063D02*
D03*
X1527559D02*
D03*
Y1389764D02*
D03*
X1496063D02*
D03*
X1464567D02*
D03*
X1433071D02*
D03*
X1401575D02*
D03*
X1370079D02*
D03*
X1338583D02*
D03*
X1307087D02*
D03*
D11*
X1582677Y1665354D02*
D03*
Y1633858D02*
D03*
Y1602362D02*
D03*
Y1570866D02*
D03*
Y1539370D02*
D03*
Y1507874D02*
D03*
Y1476378D02*
D03*
Y1444882D02*
D03*
X1251968D02*
D03*
Y1476378D02*
D03*
Y1507874D02*
D03*
Y1539370D02*
D03*
Y1570866D02*
D03*
Y1602362D02*
D03*
Y1633858D02*
D03*
Y1665354D02*
D03*
D12*
X366417Y60000D02*
D03*
X293583D02*
D03*
X176417D02*
D03*
X103583D02*
D03*
D13*
X1696968Y1553150D02*
D03*
Y1494094D02*
D03*
D14*
X944882Y1607284D02*
D03*
Y1680118D02*
D03*
Y1502953D02*
D03*
Y1430118D02*
D03*
D15*
X2142441Y216535D02*
D03*
X2201496D02*
D03*
X1579528D02*
D03*
X1520472D02*
D03*
X462598Y1830709D02*
D03*
X521654D02*
D03*
D16*
X165945Y1519685D02*
D03*
Y1545275D02*
D03*
Y1494094D02*
D03*
Y1570866D02*
D03*
Y1596457D02*
D03*
D17*
X60630Y1590551D02*
D03*
Y1500000D02*
D03*
D18*
X535433Y1742126D02*
D03*
X448819D02*
D03*
D19*
X525624Y1663386D02*
D03*
X458628D02*
D03*
X525624Y1584646D02*
D03*
X458628D02*
D03*
X525624Y1407480D02*
D03*
X458628D02*
D03*
X2033498Y1555118D02*
D03*
X1966502D02*
D03*
X251935Y1820866D02*
D03*
X318931D02*
D03*
X251935Y1978347D02*
D03*
X318931D02*
D03*
D20*
X565945Y1318898D02*
D03*
X418307D02*
D03*
X565945Y1496063D02*
D03*
X418307D02*
D03*
D21*
X57087Y1820866D02*
D03*
X139764D02*
D03*
X57087Y1978347D02*
D03*
X139764D02*
D03*
D22*
X2039370Y1712598D02*
X2045276Y1718504D01*
X939204Y195000D02*
X1270000D01*
X916142Y100000D02*
Y171938D01*
X939204Y195000D01*
X776938Y1175000D02*
X800000Y1151938D01*
X60000Y293062D02*
Y1151938D01*
X800000Y1030315D02*
Y1151938D01*
X83062Y1175000D02*
X776938D01*
X60000Y1151938D02*
X83062Y1175000D01*
X455000Y270000D02*
X625000Y100000D01*
X60000Y293062D02*
X83062Y270000D01*
X455000D01*
X625000Y100000D02*
X816142D01*
X800000Y1030315D02*
X801968Y1028347D01*
X1300000Y100000D02*
Y163297D01*
X1270000Y195000D02*
X1290000Y175000D01*
Y173297D02*
Y175000D01*
Y173297D02*
X1300000Y163297D01*
X235000Y60000D02*
Y180000D01*
X1601968Y523032D02*
X1603484Y521516D01*
X1601968Y523032D02*
Y1028347D01*
X2001968Y428346D02*
Y506969D01*
X1500000Y255000D02*
X1520472D01*
X1500000Y100000D02*
Y255000D01*
X63661Y1820000D02*
Y1897500D01*
X2055000Y560000D02*
X2415000D01*
X2001968Y506969D02*
X2055000Y560000D01*
X1901968Y428346D02*
Y591968D01*
X1950000Y640000D02*
X2371938D01*
X1901968Y591968D02*
X1950000Y640000D01*
X1801968Y428346D02*
Y668032D01*
X1701968Y768032D02*
Y1028347D01*
Y768032D02*
X1801968Y668032D01*
X625031Y255000D02*
X1500000D01*
X601968Y278062D02*
Y428346D01*
Y278062D02*
X625031Y255000D01*
X525031Y520000D02*
X1001968D01*
X501969Y496938D02*
X525031Y520000D01*
X501969Y428346D02*
Y496938D01*
X1001968Y428346D02*
Y520000D01*
X1485000D01*
X1500000Y535000D01*
Y605000D01*
X1500984Y605984D02*
Y1027362D01*
X1500000Y605000D02*
X1500984Y605984D01*
X511811Y1318898D02*
X565945D01*
X511811Y1496063D02*
X565945D01*
X1600000Y100000D02*
Y216535D01*
X1579528D02*
X1600000D01*
X2372835Y1457480D02*
X2375046Y1455269D01*
Y1389954D02*
Y1455269D01*
Y1389954D02*
X2395000Y1370000D01*
Y663062D02*
Y1370000D01*
X2475000Y620000D02*
Y1529521D01*
X2451938Y1552584D02*
X2475000Y1529521D01*
X2415000Y560000D02*
X2475000Y620000D01*
X2377731Y1552584D02*
X2451938D01*
X2371938Y640000D02*
X2395000Y663062D01*
X385000Y1780000D02*
Y1806938D01*
X408062Y1830000D02*
X461614D01*
X385000Y1806938D02*
X408062Y1830000D01*
X944882Y1555118D02*
Y1607284D01*
Y1502953D02*
Y1555118D01*
X2068338Y1770000D02*
X2223062D01*
X2045276Y1718504D02*
Y1746937D01*
X2068338Y1770000D01*
X2223062Y1770000D02*
X2349772D01*
X2372835Y1657480D02*
Y1746938D01*
X2349772Y1770000D02*
X2372835Y1746938D01*
X2223062Y1770000D02*
X2223062Y1770000D01*
X565945Y1318898D02*
X567047Y1320000D01*
X565945Y1496063D02*
X569882Y1500000D01*
X2372835Y1557480D02*
X2377731Y1552584D01*
X63661Y1897500D02*
Y1975000D01*
X1520472Y216535D02*
Y255000D01*
X1600000Y216535D02*
X2142441D01*
X1600000Y100000D02*
X1700000D01*
X1600000D02*
X1600000Y100000D01*
X335000Y180000D02*
X366417Y148583D01*
Y60000D02*
Y148583D01*
X135000Y177443D02*
Y180000D01*
X103583Y146026D02*
X135000Y177443D01*
X103583Y60000D02*
Y146026D01*
X235000Y60000D02*
X293583D01*
X176417D02*
X235000D01*
D23*
X1960630Y1712598D02*
X1965000Y1708228D01*
Y1556620D02*
Y1708228D01*
X1420000Y1615000D02*
X1469685D01*
X1496063Y1193937D02*
X1539311Y1150689D01*
X1701968D01*
X1496063Y1193937D02*
Y1368110D01*
X1555000Y1205000D02*
X1572500D01*
X1500000Y1028346D02*
Y1075000D01*
Y1028346D02*
X1500984Y1027362D01*
X1500000Y1075000D02*
X1525000Y1100000D01*
X1346473Y1570866D02*
X1582677D01*
X1689094Y1494094D02*
X1696968D01*
X1582677Y1476378D02*
X1696378D01*
X1696968Y1476968D01*
Y1494094D01*
X1508623Y1476378D02*
X1582677D01*
X1251968Y1507874D02*
X1477127D01*
X1508623Y1476378D01*
X1464567Y1389764D02*
Y1435433D01*
X1445000Y1455000D02*
X1464567Y1435433D01*
X1173622Y1476378D02*
X1251968D01*
X1102362Y1547638D02*
Y1647117D01*
Y1547638D02*
X1173622Y1476378D01*
X1185000Y1525000D02*
Y1558182D01*
X1197684Y1570866D02*
X1251968D01*
X1185000Y1558182D02*
X1197684Y1570866D01*
X1195034Y1514966D02*
X1202126Y1507874D01*
X1185000Y1525000D02*
X1195034Y1514966D01*
X1202126Y1507874D02*
X1251968D01*
X525624Y1407480D02*
X737520D01*
X880000Y1265000D02*
X1420000D01*
X737520Y1407480D02*
X880000Y1265000D01*
X655354Y1584646D02*
X915000Y1325000D01*
X525624Y1584646D02*
X655354D01*
X318937Y1732284D02*
Y1820866D01*
X1540000Y1984553D02*
X1582677Y1941875D01*
X1540000Y1984553D02*
Y2000000D01*
X1401575Y1633425D02*
Y1720473D01*
Y1633425D02*
X1420000Y1615000D01*
X1582677Y1665354D02*
Y1941875D01*
X1965000Y1556620D02*
X1966502Y1555118D01*
X1464567Y1368110D02*
Y1389764D01*
Y1368110D02*
X1465000Y1367677D01*
X1527559Y1232441D02*
Y1389764D01*
Y1232441D02*
X1555000Y1205000D01*
X1496063Y1368110D02*
X1496063Y1368110D01*
X1496063Y1368110D02*
Y1389764D01*
X1525000Y1100000D02*
X1805000D01*
X1840000Y1135000D01*
X1670118Y1444882D02*
X1840000Y1275000D01*
Y1135000D02*
Y1275000D01*
X1582677Y1444882D02*
X1670118D01*
X1582677Y1570866D02*
X1671378D01*
X1689094Y1553150D01*
X1696968D01*
X1433071Y1278071D02*
Y1389764D01*
X1420000Y1265000D02*
X1433071Y1278071D01*
X1401575Y1337684D02*
Y1389764D01*
X1388890Y1325000D02*
X1401575Y1337684D01*
X915000Y1325000D02*
X1388890D01*
X2079882Y1555118D02*
X2177520Y1457480D01*
X2033498Y1555118D02*
X2079882D01*
X2177520Y1457480D02*
X2272835D01*
X1345000Y1572339D02*
Y1589678D01*
Y1555000D02*
Y1572339D01*
X1346473Y1570866D01*
X1332316Y1602362D02*
X1345000Y1589678D01*
X1251968Y1602362D02*
X1332316D01*
X1329370Y1539370D02*
X1345000Y1555000D01*
X1251968Y1539370D02*
X1329370D01*
X1098297Y1651181D02*
X1102362Y1647117D01*
X1095970Y1651181D02*
X1098297D01*
X1108754Y1459055D02*
X1122928Y1444882D01*
X1251968D01*
D24*
X1696968Y1553150D02*
X1771653D01*
D25*
X1520472Y275000D02*
X1520472Y275000D01*
Y255000D02*
Y275000D01*
X1520472Y275000D02*
X1525472Y280000D01*
X2101968D02*
Y428346D01*
X2201732Y216535D02*
Y280000D01*
X2101968D02*
X2201732D01*
X1525472D02*
X2101968D01*
X737520Y1738740D02*
Y1777520D01*
X775000Y1815000D02*
X1293249D01*
X737520Y1777520D02*
X775000Y1815000D01*
X1307087Y1720473D02*
Y1801162D01*
X1293249Y1815000D02*
X1307087Y1801162D01*
X521654Y1830709D02*
Y1876162D01*
X507816Y1890000D02*
X521654Y1876162D01*
X71161Y1890000D02*
X507816D01*
X63661Y1897500D02*
X71161Y1890000D01*
X1102362Y1459055D02*
X1108754D01*
X1095970D02*
X1102362D01*
X944882Y1430118D02*
X1067033D01*
X1095970Y1459055D01*
X944882Y1680118D02*
X1067033D01*
X1095970Y1651181D01*
X535433Y1742126D02*
Y1816929D01*
X521654Y1830709D02*
X535433Y1816929D01*
X534316Y1741009D02*
X535433Y1742126D01*
X534316Y1681954D02*
Y1741009D01*
X525624Y1673262D02*
X534316Y1681954D01*
X525624Y1663386D02*
Y1673262D01*
X458628Y1584646D02*
Y1663386D01*
D26*
X819265Y340000D02*
X1784672D01*
X801968Y357297D02*
X819265Y340000D01*
X801968Y357297D02*
Y428346D01*
X1801968Y357297D02*
Y428346D01*
X1784672Y340000D02*
X1801968Y357297D01*
D27*
X139764Y1978347D02*
X251935D01*
X318937D02*
Y2033937D01*
X365000Y2080000D02*
X1775000D01*
X318937Y2033937D02*
X365000Y2080000D01*
X1887362Y1397638D02*
X1950000D01*
X1865000Y1420000D02*
X1887362Y1397638D01*
X1865000Y1420000D02*
Y1712598D01*
X1775000Y2080000D02*
X1800000Y2055000D01*
Y2000000D02*
Y2055000D01*
X139764Y1820866D02*
X251935D01*
X1527559Y1720473D02*
Y1809646D01*
X1800000Y1695000D02*
Y2000000D01*
X1738858Y1633858D02*
X1800000Y1695000D01*
X1582677Y1633858D02*
X1738858D01*
D28*
X380000Y1655000D02*
Y1705000D01*
X446430Y1739737D02*
X448819Y1742126D01*
X414737Y1739737D02*
X446430D01*
X380000Y1705000D02*
X414737Y1739737D01*
X418307Y1568307D02*
X434646Y1584646D01*
X458628D01*
X418307Y1496063D02*
Y1568307D01*
X165945Y1545275D02*
X274725D01*
X290000Y1340000D02*
Y1530000D01*
X274725Y1545275D02*
X290000Y1530000D01*
X319134Y1570866D02*
X340000Y1550000D01*
X349225Y1496063D02*
X418307D01*
X340000Y1505288D02*
Y1550000D01*
Y1505288D02*
X349225Y1496063D01*
X165945Y1596457D02*
X321457D01*
X380000Y1655000D01*
X165945Y1570866D02*
X319134D01*
X453680Y1402532D02*
X458628Y1407480D01*
X427532Y1402532D02*
X453680D01*
X418307Y1393307D02*
X427532Y1402532D01*
X418307Y1318898D02*
Y1393307D01*
X311102Y1318898D02*
X418307D01*
X290000Y1340000D02*
X311102Y1318898D01*
D29*
X60629Y1411910D02*
D03*
X60630Y1678641D02*
D03*
D30*
X816142Y100000D02*
D03*
X1950000Y1397638D02*
D03*
Y1712598D02*
D03*
X135000Y180000D02*
D03*
D31*
X916142Y100000D02*
D03*
X2101968Y1028347D02*
D03*
X2001968D02*
D03*
X1901968D02*
D03*
X1801968D02*
D03*
X1701968D02*
D03*
X1601968D02*
D03*
X1501968D02*
D03*
X1401968D02*
D03*
X1301968D02*
D03*
X1201968D02*
D03*
X1101968D02*
D03*
X1001968D02*
D03*
X901968D02*
D03*
X801968D02*
D03*
X701968D02*
D03*
X601968D02*
D03*
X501969D02*
D03*
X401969D02*
D03*
X301969D02*
D03*
X2201968Y428346D02*
D03*
X2101968D02*
D03*
X2001968D02*
D03*
X1901968D02*
D03*
X1801968D02*
D03*
X1701968D02*
D03*
X1601968D02*
D03*
X1501968D02*
D03*
X1401968D02*
D03*
X1301968D02*
D03*
X1201968D02*
D03*
X1101968D02*
D03*
X1001968D02*
D03*
X901968D02*
D03*
X801968D02*
D03*
X701968D02*
D03*
X601968D02*
D03*
X501969D02*
D03*
X401969D02*
D03*
X301969D02*
D03*
X940000Y2000000D02*
D03*
X1040000D02*
D03*
X1240000D02*
D03*
X1440000D02*
D03*
X1640000D02*
D03*
X1540000D02*
D03*
X1340000D02*
D03*
X1140000D02*
D03*
X840000D02*
D03*
X740000D02*
D03*
X1800000D02*
D03*
X1900000D02*
D03*
X2100000D02*
D03*
X2500000D02*
D03*
X2000000D02*
D03*
X2200000D02*
D03*
X2300000D02*
D03*
X2400000D02*
D03*
X2000000Y100000D02*
D03*
X2100000D02*
D03*
X2300000D02*
D03*
X2500000D02*
D03*
X2400000D02*
D03*
X2200000D02*
D03*
X1300000D02*
D03*
X1800000D02*
D03*
X1400000D02*
D03*
X1200000D02*
D03*
X1100000D02*
D03*
X1500000D02*
D03*
X1600000D02*
D03*
X1700000D02*
D03*
X1102362Y1651181D02*
D03*
Y1459055D02*
D03*
X2050000Y1397638D02*
D03*
Y1712598D02*
D03*
X335000Y180000D02*
D03*
X235000D02*
D03*
X2272835Y1457480D02*
D03*
X2372835Y1557480D02*
D03*
Y1657480D02*
D03*
X2272835Y1557480D02*
D03*
Y1657480D02*
D03*
D32*
X2201968Y1028347D02*
D03*
X2372835Y1457480D02*
D03*
D33*
X178740Y1632874D02*
D03*
Y1457677D02*
D03*
D34*
X60630Y1380905D02*
D03*
Y1709646D02*
D03*
D35*
X1771653Y1553150D02*
D03*
X1701968Y1150689D02*
D03*
X1572500Y1205000D02*
D03*
X511811Y1318898D02*
D03*
Y1496063D02*
D03*
X385000Y1780000D02*
D03*
X1865000Y1712598D02*
D03*
X60000Y1545000D02*
D03*
X944882Y1555118D02*
D03*
X1445000Y1455000D02*
D03*
X737520Y1738740D02*
D03*
Y1407480D02*
D03*
X318937Y1732284D02*
D03*
X1527559Y1809646D02*
D03*
X1469685Y1615000D02*
D03*
D36*
X1603484Y521516D02*
D03*
X1500000Y605000D02*
D03*
X2573681Y1365000D02*
D03*
%TF.MD5,a63bb4f56747921428528f9e0d10b35a*%
M02*
