%TF.GenerationSoftware,Altium Limited,Altium Designer,20.2.6 (244)*%
G04 Layer_Color=0*
%FSLAX26Y26*%
%MOIN*%
%TF.SameCoordinates,5A7C1849-F1A5-4743-A48D-7E663CB7BB3B*%
%TF.FilePolarity,Positive*%
%TF.FileFunction,Plated,1,2,PTH,Drill*%
%TF.Part,Single*%
G01*
G75*
%TA.AperFunction,ComponentDrill*%
%ADD58C,0.043307*%
%ADD59C,0.043307*%
%ADD60O,0.033465X0.025591*%
%ADD61O,0.051181X0.023622*%
%TA.AperFunction,ViaDrill,NotFilled*%
%ADD62C,0.019685*%
%ADD63C,0.029528*%
D58*
X816142Y100000D02*
D03*
X916142D02*
D03*
X940000Y2000000D02*
D03*
X1040000D02*
D03*
X1240000D02*
D03*
X1440000D02*
D03*
X1640000D02*
D03*
X1540000D02*
D03*
X1340000D02*
D03*
X1140000D02*
D03*
X840000D02*
D03*
X740000D02*
D03*
X1800000D02*
D03*
X1900000D02*
D03*
X2100000D02*
D03*
X2500000D02*
D03*
X2000000D02*
D03*
X2200000D02*
D03*
X2300000D02*
D03*
X2400000D02*
D03*
X2000000Y100000D02*
D03*
X2100000D02*
D03*
X2300000D02*
D03*
X2500000D02*
D03*
X2400000D02*
D03*
X2200000D02*
D03*
X1300000D02*
D03*
X1800000D02*
D03*
X1400000D02*
D03*
X1200000D02*
D03*
X1100000D02*
D03*
X1500000D02*
D03*
X1600000D02*
D03*
X1700000D02*
D03*
X2050000Y1397638D02*
D03*
X1950000D02*
D03*
Y1712598D02*
D03*
X2050000D02*
D03*
X335000Y180000D02*
D03*
X235000D02*
D03*
X135000D02*
D03*
D59*
X2201968Y1028347D02*
D03*
X2101968D02*
D03*
X2001968D02*
D03*
X1901968D02*
D03*
X1801968D02*
D03*
X1701968D02*
D03*
X1601968D02*
D03*
X1501968D02*
D03*
X1401968D02*
D03*
X1301968D02*
D03*
X1201968D02*
D03*
X1101968D02*
D03*
X1001968D02*
D03*
X901968D02*
D03*
X801968D02*
D03*
X701968D02*
D03*
X601968D02*
D03*
X501969D02*
D03*
X401969D02*
D03*
X301969D02*
D03*
X2201968Y428346D02*
D03*
X2101968D02*
D03*
X2001968D02*
D03*
X1901968D02*
D03*
X1801968D02*
D03*
X1701968D02*
D03*
X1601968D02*
D03*
X1501968D02*
D03*
X1401968D02*
D03*
X1301968D02*
D03*
X1201968D02*
D03*
X1101968D02*
D03*
X1001968D02*
D03*
X901968D02*
D03*
X801968D02*
D03*
X701968D02*
D03*
X601968D02*
D03*
X501969D02*
D03*
X401969D02*
D03*
X301969D02*
D03*
X1102362Y1651181D02*
D03*
Y1459055D02*
D03*
X2372835Y1457480D02*
D03*
X2272835D02*
D03*
X2372835Y1557480D02*
D03*
Y1657480D02*
D03*
X2272835Y1557480D02*
D03*
Y1657480D02*
D03*
D60*
X178740Y1632874D02*
D03*
Y1457677D02*
D03*
D61*
X60630Y1380905D02*
D03*
Y1709646D02*
D03*
D62*
X1771653Y1553150D02*
D03*
X1701968Y1150689D02*
D03*
X1572500Y1205000D02*
D03*
X511811Y1318898D02*
D03*
Y1496063D02*
D03*
X385000Y1780000D02*
D03*
X1865000Y1712598D02*
D03*
X60000Y1545000D02*
D03*
X944882Y1555118D02*
D03*
X1445000Y1455000D02*
D03*
X737520Y1738740D02*
D03*
Y1407480D02*
D03*
X318937Y1732284D02*
D03*
X1527559Y1809646D02*
D03*
X1469685Y1615000D02*
D03*
D63*
X1603484Y521516D02*
D03*
X1500000Y605000D02*
D03*
X2573681Y1365000D02*
D03*
%TF.MD5,29de0aeee8f625d7d4b093004433422c*%
M02*
