%TF.GenerationSoftware,Altium Limited,Altium Designer,20.2.6 (244)*%
G04 Layer_Color=8421504*
%FSLAX26Y26*%
%MOIN*%
%TF.SameCoordinates,5A7C1849-F1A5-4743-A48D-7E663CB7BB3B*%
%TF.FilePolarity,Positive*%
%TF.FileFunction,Paste,Top*%
%TF.Part,Single*%
G01*
G75*
%TA.AperFunction,SMDPad,CuDef*%
%ADD10O,0.021654X0.064961*%
%ADD11O,0.064961X0.021654*%
%ADD12R,0.037402X0.055118*%
%ADD13R,0.053150X0.037402*%
%ADD14R,0.055118X0.037402*%
%ADD15R,0.037402X0.053150*%
%TA.AperFunction,ConnectorPad*%
%ADD16R,0.098000X0.015748*%
%ADD17R,0.074803X0.070866*%
%TA.AperFunction,SMDPad,CuDef*%
%ADD18R,0.039370X0.059055*%
%ADD19R,0.031752X0.051505*%
%ADD20R,0.049213X0.078740*%
%ADD21R,0.043307X0.047244*%
%TA.AperFunction,Conductor*%
%ADD29R,0.074803X0.062008*%
D10*
X1307087Y1720473D02*
D03*
X1338583D02*
D03*
X1370079D02*
D03*
X1401575D02*
D03*
X1433071D02*
D03*
X1464567D02*
D03*
X1496063D02*
D03*
X1527559D02*
D03*
Y1389764D02*
D03*
X1496063D02*
D03*
X1464567D02*
D03*
X1433071D02*
D03*
X1401575D02*
D03*
X1370079D02*
D03*
X1338583D02*
D03*
X1307087D02*
D03*
D11*
X1582677Y1665354D02*
D03*
Y1633858D02*
D03*
Y1602362D02*
D03*
Y1570866D02*
D03*
Y1539370D02*
D03*
Y1507874D02*
D03*
Y1476378D02*
D03*
Y1444882D02*
D03*
X1251968D02*
D03*
Y1476378D02*
D03*
Y1507874D02*
D03*
Y1539370D02*
D03*
Y1570866D02*
D03*
Y1602362D02*
D03*
Y1633858D02*
D03*
Y1665354D02*
D03*
D12*
X366417Y60000D02*
D03*
X293583D02*
D03*
X176417D02*
D03*
X103583D02*
D03*
D13*
X1696968Y1553150D02*
D03*
Y1494094D02*
D03*
D14*
X944882Y1607284D02*
D03*
Y1680118D02*
D03*
Y1502953D02*
D03*
Y1430118D02*
D03*
D15*
X2142441Y216535D02*
D03*
X2201496D02*
D03*
X1579528D02*
D03*
X1520472D02*
D03*
X462598Y1830709D02*
D03*
X521654D02*
D03*
D16*
X165945Y1519685D02*
D03*
Y1545275D02*
D03*
Y1494094D02*
D03*
Y1570866D02*
D03*
Y1596457D02*
D03*
D17*
X60630Y1590551D02*
D03*
Y1500000D02*
D03*
D18*
X535433Y1742126D02*
D03*
X448819D02*
D03*
D19*
X525624Y1663386D02*
D03*
X458628D02*
D03*
X525624Y1584646D02*
D03*
X458628D02*
D03*
X525624Y1407480D02*
D03*
X458628D02*
D03*
X2033498Y1555118D02*
D03*
X1966502D02*
D03*
X251935Y1820866D02*
D03*
X318931D02*
D03*
X251935Y1978347D02*
D03*
X318931D02*
D03*
D20*
X565945Y1318898D02*
D03*
X418307D02*
D03*
X565945Y1496063D02*
D03*
X418307D02*
D03*
D21*
X57087Y1820866D02*
D03*
X139764D02*
D03*
X57087Y1978347D02*
D03*
X139764D02*
D03*
D29*
X60629Y1411910D02*
D03*
X60630Y1678641D02*
D03*
%TF.MD5,3101ca58324c10c5f13d8636b2aec071*%
M02*
