%TF.GenerationSoftware,Altium Limited,Altium Designer,20.2.6 (244)*%
G04 Layer_Color=16711935*
%FSLAX26Y26*%
%MOIN*%
%TF.SameCoordinates,5A7C1849-F1A5-4743-A48D-7E663CB7BB3B*%
%TF.FilePolarity,Negative*%
%TF.FileFunction,Soldermask,Bot*%
%TF.Part,Single*%
G01*
G75*
%TA.AperFunction,ComponentPad*%
%ADD30R,0.078740X0.078740*%
%ADD31C,0.078740*%
%ADD37R,0.086740X0.086740*%
%ADD38C,0.086740*%
%ADD39R,0.086740X0.086740*%
%ADD40C,0.079528*%
%ADD41O,0.057213X0.049339*%
%ADD42O,0.082803X0.055244*%
D30*
X1950000Y1397638D02*
D03*
Y1712598D02*
D03*
D31*
X2050000Y1397638D02*
D03*
Y1712598D02*
D03*
D37*
X816142Y100000D02*
D03*
X135000Y180000D02*
D03*
D38*
X916142Y100000D02*
D03*
X2101968Y1028347D02*
D03*
X2001968D02*
D03*
X1901968D02*
D03*
X1801968D02*
D03*
X1701968D02*
D03*
X1601968D02*
D03*
X1501968D02*
D03*
X1401968D02*
D03*
X1301968D02*
D03*
X1201968D02*
D03*
X1101968D02*
D03*
X1001968D02*
D03*
X901968D02*
D03*
X801968D02*
D03*
X701968D02*
D03*
X601968D02*
D03*
X501969D02*
D03*
X401969D02*
D03*
X301969D02*
D03*
X2201968Y428346D02*
D03*
X2101968D02*
D03*
X2001968D02*
D03*
X1901968D02*
D03*
X1801968D02*
D03*
X1701968D02*
D03*
X1601968D02*
D03*
X1501968D02*
D03*
X1401968D02*
D03*
X1301968D02*
D03*
X1201968D02*
D03*
X1101968D02*
D03*
X1001968D02*
D03*
X901968D02*
D03*
X801968D02*
D03*
X701968D02*
D03*
X601968D02*
D03*
X501969D02*
D03*
X401969D02*
D03*
X301969D02*
D03*
X1102362Y1651181D02*
D03*
Y1459055D02*
D03*
X335000Y180000D02*
D03*
X235000D02*
D03*
X2272835Y1457480D02*
D03*
X2372835Y1557480D02*
D03*
Y1657480D02*
D03*
X2272835Y1557480D02*
D03*
Y1657480D02*
D03*
D39*
X2201968Y1028347D02*
D03*
X2372835Y1457480D02*
D03*
D40*
X940000Y2000000D02*
D03*
X1040000D02*
D03*
X1240000D02*
D03*
X1440000D02*
D03*
X1640000D02*
D03*
X1540000D02*
D03*
X1340000D02*
D03*
X1140000D02*
D03*
X840000D02*
D03*
X740000D02*
D03*
X1800000D02*
D03*
X1900000D02*
D03*
X2100000D02*
D03*
X2500000D02*
D03*
X2000000D02*
D03*
X2200000D02*
D03*
X2300000D02*
D03*
X2400000D02*
D03*
X2000000Y100000D02*
D03*
X2100000D02*
D03*
X2300000D02*
D03*
X2500000D02*
D03*
X2400000D02*
D03*
X2200000D02*
D03*
X1300000D02*
D03*
X1800000D02*
D03*
X1400000D02*
D03*
X1200000D02*
D03*
X1100000D02*
D03*
X1500000D02*
D03*
X1600000D02*
D03*
X1700000D02*
D03*
D41*
X178740Y1632874D02*
D03*
Y1457677D02*
D03*
D42*
X60630Y1380905D02*
D03*
Y1709646D02*
D03*
%TF.MD5,1518209b392f64dceceea3b720304116*%
M02*
