%TF.GenerationSoftware,Altium Limited,Altium Designer,20.2.6 (244)*%
G04 Layer_Color=255*
%FSLAX26Y26*%
%MOIN*%
%TF.SameCoordinates,5A7C1849-F1A5-4743-A48D-7E663CB7BB3B*%
%TF.FilePolarity,Positive*%
%TF.FileFunction,Pads,Top*%
%TF.Part,Single*%
G01*
G75*
%TA.AperFunction,SMDPad,CuDef*%
%ADD10O,0.021654X0.064961*%
%ADD11O,0.064961X0.021654*%
%ADD12R,0.037402X0.055118*%
%ADD13R,0.053150X0.037402*%
%ADD14R,0.055118X0.037402*%
%ADD15R,0.037402X0.053150*%
%TA.AperFunction,ConnectorPad*%
%ADD16R,0.098000X0.015748*%
%ADD17R,0.074803X0.070866*%
%TA.AperFunction,SMDPad,CuDef*%
%ADD18R,0.039370X0.059055*%
%ADD19R,0.031752X0.051505*%
%ADD20R,0.049213X0.078740*%
%ADD21R,0.043307X0.047244*%
%TA.AperFunction,ComponentPad*%
%ADD30R,0.078740X0.078740*%
%ADD31C,0.078740*%
%ADD32R,0.078740X0.078740*%
%ADD33O,0.049213X0.041339*%
%ADD34O,0.074803X0.047244*%
D10*
X1307087Y1720473D02*
D03*
X1338583D02*
D03*
X1370079D02*
D03*
X1401575D02*
D03*
X1433071D02*
D03*
X1464567D02*
D03*
X1496063D02*
D03*
X1527559D02*
D03*
Y1389764D02*
D03*
X1496063D02*
D03*
X1464567D02*
D03*
X1433071D02*
D03*
X1401575D02*
D03*
X1370079D02*
D03*
X1338583D02*
D03*
X1307087D02*
D03*
D11*
X1582677Y1665354D02*
D03*
Y1633858D02*
D03*
Y1602362D02*
D03*
Y1570866D02*
D03*
Y1539370D02*
D03*
Y1507874D02*
D03*
Y1476378D02*
D03*
Y1444882D02*
D03*
X1251968D02*
D03*
Y1476378D02*
D03*
Y1507874D02*
D03*
Y1539370D02*
D03*
Y1570866D02*
D03*
Y1602362D02*
D03*
Y1633858D02*
D03*
Y1665354D02*
D03*
D12*
X366417Y60000D02*
D03*
X293583D02*
D03*
X176417D02*
D03*
X103583D02*
D03*
D13*
X1696968Y1553150D02*
D03*
Y1494094D02*
D03*
D14*
X944882Y1607284D02*
D03*
Y1680118D02*
D03*
Y1502953D02*
D03*
Y1430118D02*
D03*
D15*
X2142441Y216535D02*
D03*
X2201496D02*
D03*
X1579528D02*
D03*
X1520472D02*
D03*
X462598Y1830709D02*
D03*
X521654D02*
D03*
D16*
X165945Y1519685D02*
D03*
Y1545275D02*
D03*
Y1494094D02*
D03*
Y1570866D02*
D03*
Y1596457D02*
D03*
D17*
X60630Y1590551D02*
D03*
Y1500000D02*
D03*
D18*
X535433Y1742126D02*
D03*
X448819D02*
D03*
D19*
X525624Y1663386D02*
D03*
X458628D02*
D03*
X525624Y1584646D02*
D03*
X458628D02*
D03*
X525624Y1407480D02*
D03*
X458628D02*
D03*
X2033498Y1555118D02*
D03*
X1966502D02*
D03*
X251935Y1820866D02*
D03*
X318931D02*
D03*
X251935Y1978347D02*
D03*
X318931D02*
D03*
D20*
X565945Y1318898D02*
D03*
X418307D02*
D03*
X565945Y1496063D02*
D03*
X418307D02*
D03*
D21*
X57087Y1820866D02*
D03*
X139764D02*
D03*
X57087Y1978347D02*
D03*
X139764D02*
D03*
D30*
X816142Y100000D02*
D03*
X1950000Y1397638D02*
D03*
Y1712598D02*
D03*
X135000Y180000D02*
D03*
D31*
X916142Y100000D02*
D03*
X2101968Y1028347D02*
D03*
X2001968D02*
D03*
X1901968D02*
D03*
X1801968D02*
D03*
X1701968D02*
D03*
X1601968D02*
D03*
X1501968D02*
D03*
X1401968D02*
D03*
X1301968D02*
D03*
X1201968D02*
D03*
X1101968D02*
D03*
X1001968D02*
D03*
X901968D02*
D03*
X801968D02*
D03*
X701968D02*
D03*
X601968D02*
D03*
X501969D02*
D03*
X401969D02*
D03*
X301969D02*
D03*
X2201968Y428346D02*
D03*
X2101968D02*
D03*
X2001968D02*
D03*
X1901968D02*
D03*
X1801968D02*
D03*
X1701968D02*
D03*
X1601968D02*
D03*
X1501968D02*
D03*
X1401968D02*
D03*
X1301968D02*
D03*
X1201968D02*
D03*
X1101968D02*
D03*
X1001968D02*
D03*
X901968D02*
D03*
X801968D02*
D03*
X701968D02*
D03*
X601968D02*
D03*
X501969D02*
D03*
X401969D02*
D03*
X301969D02*
D03*
X940000Y2000000D02*
D03*
X1040000D02*
D03*
X1240000D02*
D03*
X1440000D02*
D03*
X1640000D02*
D03*
X1540000D02*
D03*
X1340000D02*
D03*
X1140000D02*
D03*
X840000D02*
D03*
X740000D02*
D03*
X1800000D02*
D03*
X1900000D02*
D03*
X2100000D02*
D03*
X2500000D02*
D03*
X2000000D02*
D03*
X2200000D02*
D03*
X2300000D02*
D03*
X2400000D02*
D03*
X2000000Y100000D02*
D03*
X2100000D02*
D03*
X2300000D02*
D03*
X2500000D02*
D03*
X2400000D02*
D03*
X2200000D02*
D03*
X1300000D02*
D03*
X1800000D02*
D03*
X1400000D02*
D03*
X1200000D02*
D03*
X1100000D02*
D03*
X1500000D02*
D03*
X1600000D02*
D03*
X1700000D02*
D03*
X1102362Y1651181D02*
D03*
Y1459055D02*
D03*
X2050000Y1397638D02*
D03*
Y1712598D02*
D03*
X335000Y180000D02*
D03*
X235000D02*
D03*
X2272835Y1457480D02*
D03*
X2372835Y1557480D02*
D03*
Y1657480D02*
D03*
X2272835Y1557480D02*
D03*
Y1657480D02*
D03*
D32*
X2201968Y1028347D02*
D03*
X2372835Y1457480D02*
D03*
D33*
X178740Y1632874D02*
D03*
Y1457677D02*
D03*
D34*
X60630Y1380905D02*
D03*
Y1709646D02*
D03*
%TF.MD5,954840509320ecf74778c7743c9d04be*%
M02*
